<svg id="CambridgeTurnpike" xmlns="http://www.w3.org/2000/svg" viewBox="0 0 1019.21 924.84">
  <defs>
    <style>
      .cls-1 {
        fill: none;
        stroke: #00539f;
        stroke-miterlimit: 3.86;
        stroke-width: 3px;
        fill-rule: evenodd;
      }
    </style>
  </defs>
  <path class="cls-1" d="M536.35,467.56s-14.08-10.39-21.22-16a104.34,104.34,0,0,0-10.65-7.65s-2.62-6.81-2.83-10.85-3.74-7.68-3.74-7.68l-9.75-4.22-7-4.59-14.25-6.09-9.28-2.91s-4.6-2.34-7.78-3.84a53.79,53.79,0,0,0-8.25-2.72l-5.44-.19-3.84-.37s-6-2.07-7.79-3.29-5-1.21-5-1.21-10.79-.38-14-.47a14,14,0,0,1-5.72-1.5l-18.38-11.72.47.2a21.78,21.78,0,0,0-5.62-2.55c-2.16-.75-3.33-1.31-5.53-2-4.53-1.39-7.25-1.34-11.91-2.07-3.63-.56-5.18-2.62-8-5.06a15.58,15.58,0,0,0-3-1.87,52.68,52.68,0,0,0-7.12-3.94c-1.58-.63-5.14-2.39-5.82-2.81-.42-.26-.61-.75-1.12-.75,0,0-18.84-8.74-29.74-9.33"/>
</svg>
