<svg id="Newburyport" xmlns="http://www.w3.org/2000/svg" viewBox="0 0 1019.21 924.84">
  <defs>
    <style>
      .cls-1 {
        fill: none;
        stroke: #00539f;
        stroke-miterlimit: 3.86;
        stroke-width: 3px;
        fill-rule: evenodd;
      }
    </style>
  </defs>
  <path class="cls-1" d="M760.22-232.21c-2.86,2.86-4.83,3.94-7.68,6.56-2.44,2.25-4.69,3.75-4.69,7.08,0,1.78.19,2.81.19,4.6v2.25c0,4.07-3.94,5.57-3.94,9.65v5.35c0,2.34-3,2.85-3,5.2,0,6,5.62,8.3,5.62,14.25,0,2.3-3,2.76-3,5.06s1.69,3.09,1.69,5.25c0,4.92-4.12,7.08-4.12,12,0,5.58,2.48,8.67,5.81,13.13,2.86,3.84,5.62,5.48,5.62,10.31,0,1.78.94,3,.94,4.73,0,2.35-.75,3.66-1.12,6-1.08,6.46-2.35,12.51-5.63,18.18-2.81,4.88-5.48,5.35-6.75,10.88-1,2.58-3,5.62-3,8.44,0,4,2,4.45,3.75,8.06L723.85-21.08,710.16,41.17,686,111.29,664.6,172.6l-39,104.07-2.81,5.25L616,288.48,613.22,310l-4.31,12-2.44,6.75-1.31,8.06,2.25,16.69-.37,4.31c-.47,3-.47,4.88-1.5,7.69-.8,2.2-2,2.14-2,4.49,0,2.13,5.42,6.57,5.42,6.57,1.9,2.11,3.66,3.52,3.66,6.38,0,3.09-2.25,4.47-4.5,6.56-2.67,2.49-3.75,4.31-5.72,7.5-.91,1.38-1.59,1.81-1.78,3.47a30.31,30.31,0,0,0-.56,3.75c0,4.08,4.59,5.3,4.59,9.37,0,5.54-11.15,3.19-11.15,8.72,0,2.84,3.18,3.73,3.18,6.57a1.81,1.81,0,0,1-.65,1.4,36.53,36.53,0,0,1-4.6,3.38c-1.5.75-3.65,3.65-3.65,3.65l-17.25,22.41"/>
</svg>
