<svg id="Layer_28" data-name="Layer 28" xmlns="http://www.w3.org/2000/svg" viewBox="0 0 1019.21 924.84">
  <defs>
    <style>
      .cls-1, .cls-2 {
        fill: none;
      }

      .cls-1 {
        stroke: #008aab;
        stroke-width: 3px;
      }

      .cls-1, .cls-2, .cls-3 {
        stroke-miterlimit: 3.86;
        fill-rule: evenodd;
      }

      .cls-2 {
        stroke: #fff;
      }

      .cls-3 {
        fill: #fff;
        stroke: #231f20;
        stroke-width: 0.5px;
      }

      .cls-4 {
        font-size: 12px;
        fill: #231f20;
        font-family: Helvetica;
      }
    </style>
  </defs>
  <path class="cls-1" d="M295.41,364c-2.53-1.27-3.8-2.3-6.37-3.47-5-2.28-8-3.92-11.25-8.25-1.2-2.39-2.25-3.38-3.66-5.63-1-1.64-1.41-2.93-3-4s-2.93-1.15-4.78-2.06l1.8.77-17.83-5.08-8.35-.75-23.43-3.28A143,143,0,0,0,211.6,319,56,56,0,0,0,201,305.82L184.13,293c-4.31-3.28-6.19-4.88-7-7.13s-5.63-6.37-5.63-6.37-17.34-11.26-21.84-14.16c-5.53-3.56-8.25-2.34-8.25-2.34s-23.25,5.9-26.53,6.94a27,27,0,0,1-7.41.93s-14.34-1.68-19.5-2.06-6.56,1.78-6.56,1.78.28-.09-4.13,3.85-10.78,3.09-10.78,3.09-18.75-4-25.31-5.34-10.31.84-10.31.84l-7.22,3.19C17.25,279,10,277.51,10,277.51l-27-5.25s-.75-.28-12.19-.84-14.91-5.63-14.91-5.63l-7.87-9.37s-9.19-8.82-11.44-11.16-3.09-2.53-3.09-2.53l-4.41-1.6c-3.09-1.12-1.31-.37-4.31-4.59S-83.71,233-83.71,233s-7.41,1.12-9.66,1.5-6.47-.47-6.47-.47a43.77,43.77,0,0,1-4.69-1.13c-3.84-1-5.06,1-5.06,1s-.37.46-1.78,2.43-5,2.53-5,2.53l-4.69.19s-1.78.28-4,.66a9.41,9.41,0,0,1-4.4-.47,43.37,43.37,0,0,1-4.5-1.5c-3.29-1.22-4.13-.94-4.13-.94s-2.06.38-4.22.75a14,14,0,0,1-4.69-.19s-2.62-.56-7.21-1.4S-166,237.85-166,237.85s-14.43,5.16-19.78,7.22a13.63,13.63,0,0,1-10.21-.4c-1.13-.68-2.26-1.32-3.29-1.85a60.17,60.17,0,0,1-7.31-4.4s-2.81-2-9.38-7.22a31.83,31.83,0,0,0-12.84-6.38s-8.25-1.59-12-2.44-11.53-1.5-11.53-1.5-5.44-.37-9.09-.37a29.62,29.62,0,0,1-8.16-1.59s-5.81-3.1-9.38-4.88a6.43,6.43,0,0,0-6.47.38s-7.87,5.06-10.31,6.84a12.85,12.85,0,0,1-6,2l-6.47.28s-3.37-.47-13.5,2.91-14.78-3-14.78-3c-2.68-2.2-5.59-4.64-8.65-7.26-13.69-11.72-30.66-6.66-30.66-6.66s-6.28,1.69-9.94,2.44-9-.1-9-.1-19.22-4.87-22.4-5.53a29,29,0,0,0-6.47-.47s-3.75.66-5.82,1a12.88,12.88,0,0,1-4.87-.47s-5.81-2-11-4.22-7.31-1.88-10.87-1.69a37,37,0,0,0-8.35,1.88,64.52,64.52,0,0,0-8.44,3.84,85,85,0,0,1-10.5,4.59s-5.62,1.6-11.06,3.38a70.75,70.75,0,0,1-11,2.53s-9.37.28-11.62.47a19.67,19.67,0,0,1-5.25-.56s-3-1.22-5.72-2.63-6-.09-6-.09-15.75,6.18-23.81,9.18-12.57-1-12.57-1-10.12-8.34-14.43-12.28a18.13,18.13,0,0,1-5.35-8.34s-.09-.85-1-8.06-4.59-9.57-4.59-9.57-7.5-5.25-10.5-7.31a9.56,9.56,0,0,0-5.25-2l-3.75.38s-4-1.33-5.65-1.82"/>
  <path class="cls-2" d="M295.41,364c-2.53-1.27-3.8-2.3-6.37-3.47-5-2.28-8-3.92-11.25-8.25-1.2-2.39-2.25-3.38-3.66-5.63-1-1.64-1.41-2.93-3-4s-2.93-1.15-4.78-2.06l1.8.77-17.83-5.08-8.35-.75-23.43-3.28A143,143,0,0,0,211.6,319,56,56,0,0,0,201,305.82L184.13,293c-4.31-3.28-6.19-4.88-7-7.13s-5.63-6.37-5.63-6.37-17.34-11.26-21.84-14.16c-5.53-3.56-8.25-2.34-8.25-2.34s-23.25,5.9-26.53,6.94a27,27,0,0,1-7.41.93s-14.34-1.68-19.5-2.06-6.56,1.78-6.56,1.78.28-.09-4.13,3.85-10.78,3.09-10.78,3.09-18.75-4-25.31-5.34-10.31.84-10.31.84l-7.22,3.19C17.25,279,10,277.51,10,277.51l-27-5.25s-.75-.28-12.19-.84-14.91-5.63-14.91-5.63l-7.87-9.37s-9.19-8.82-11.44-11.16-3.09-2.53-3.09-2.53l-4.41-1.6c-3.09-1.12-1.31-.37-4.31-4.59S-83.71,233-83.71,233s-7.41,1.12-9.66,1.5-6.47-.47-6.47-.47a43.77,43.77,0,0,1-4.69-1.13c-3.84-1-5.06,1-5.06,1s-.37.46-1.78,2.43-5,2.53-5,2.53l-4.69.19s-1.78.28-4,.66a9.41,9.41,0,0,1-4.4-.47,43.37,43.37,0,0,1-4.5-1.5c-3.29-1.22-4.13-.94-4.13-.94s-2.06.38-4.22.75a14,14,0,0,1-4.69-.19s-2.62-.56-7.21-1.4S-166,237.85-166,237.85s-14.43,5.16-19.78,7.22a13.63,13.63,0,0,1-10.21-.4c-1.13-.68-2.26-1.32-3.29-1.85a60.17,60.17,0,0,1-7.31-4.4s-2.81-2-9.38-7.22a31.83,31.83,0,0,0-12.84-6.38s-8.25-1.59-12-2.44-11.53-1.5-11.53-1.5-5.44-.37-9.09-.37a29.62,29.62,0,0,1-8.16-1.59s-5.81-3.1-9.38-4.88a6.43,6.43,0,0,0-6.47.38s-7.87,5.06-10.31,6.84a12.85,12.85,0,0,1-6,2l-6.47.28s-3.37-.47-13.5,2.91-14.78-3-14.78-3c-2.68-2.2-5.59-4.64-8.65-7.26-13.69-11.72-30.66-6.66-30.66-6.66s-6.28,1.69-9.94,2.44-9-.1-9-.1-19.22-4.87-22.4-5.53a29,29,0,0,0-6.47-.47s-3.75.66-5.82,1a12.88,12.88,0,0,1-4.87-.47s-5.81-2-11-4.22-7.31-1.88-10.87-1.69a37,37,0,0,0-8.35,1.88,64.52,64.52,0,0,0-8.44,3.84,85,85,0,0,1-10.5,4.59s-5.62,1.6-11.06,3.38a70.75,70.75,0,0,1-11,2.53s-9.37.28-11.62.47a19.67,19.67,0,0,1-5.25-.56s-3-1.22-5.72-2.63-6-.09-6-.09-15.75,6.18-23.81,9.18-12.57-1-12.57-1-10.12-8.34-14.43-12.28a18.13,18.13,0,0,1-5.35-8.34s-.09-.85-1-8.06-4.59-9.57-4.59-9.57-7.5-5.25-10.5-7.31a9.56,9.56,0,0,0-5.25-2l-3.75.38s-4-1.33-5.65-1.82"/>
  <path class="cls-3" d="M205.78,330.22c0-5.47,5.88-9.91,13.14-9.91s13.14,4.44,13.14,9.91-5.89,9.92-13.14,9.92S205.78,335.7,205.78,330.22Z"/>
  <text class="cls-4" transform="translate(215.58 334.23)">2</text>
  <path class="cls-3" d="M71.11,268.63c0-5.47,5.88-9.91,13.14-9.91s13.14,4.44,13.14,9.91-5.88,9.92-13.14,9.92S71.11,274.11,71.11,268.63Z"/>
  <text class="cls-4" transform="translate(80.91 272.64)">2</text>
</svg>
