<svg id="RT2east" xmlns="http://www.w3.org/2000/svg" viewBox="0 0 1019.21 924.84">
  <defs>
    <style>
      .cls-1, .cls-2 {
        fill: none;
      }

      .cls-1 {
        stroke: #008aab;
        stroke-width: 3px;
      }

      .cls-1, .cls-2, .cls-3 {
        stroke-miterlimit: 3.86;
        fill-rule: evenodd;
      }

      .cls-2 {
        stroke: #fff;
      }

      .cls-3 {
        fill: #fff;
        stroke: #231f20;
        stroke-width: 0.5px;
      }

      .cls-4 {
        font-size: 12px;
        fill: #231f20;
        font-family: Helvetica;
      }
    </style>
  </defs>
  <path class="cls-1" d="M497.91,425.35l-9.75-4.22-7-4.59-14.25-6.09-9.28-2.91s-4.6-2.34-7.78-3.84a53.79,53.79,0,0,0-8.25-2.72l-5.44-.19-3.84-.37s-6-2.07-7.79-3.29-5-1.21-5-1.21-10.79-.38-14-.47a14,14,0,0,1-5.72-1.5l-18.38-11.72.47.2a21.78,21.78,0,0,0-5.62-2.55c-2.16-.75-3.33-1.31-5.53-2-4.53-1.39-7.25-1.34-11.91-2.07-3.63-.56-5.18-2.62-8-5.06a15.58,15.58,0,0,0-3-1.87,52.68,52.68,0,0,0-7.12-3.94c-1.58-.63-5.14-2.39-5.82-2.81-.42-.26-.61-.75-1.12-.75-1.92,0-2.74,1.24-4.5,2-2.18.9-3.38,1.6-5.63,2.35-3.84,1.26-6.07,2.44-10.12,2.44a31.81,31.81,0,0,1-9.66-1.13c-1.48-.37-2.32-.63-3.75-1.12a38.4,38.4,0,0,1-4.78-2"/>
  <path class="cls-2" d="M497.91,425.35l-9.75-4.22-7-4.59-14.25-6.09-9.28-2.91s-4.6-2.34-7.78-3.84a53.79,53.79,0,0,0-8.25-2.72l-5.44-.19-3.84-.37s-6-2.07-7.79-3.29-5-1.21-5-1.21-10.79-.38-14-.47a14,14,0,0,1-5.72-1.5l-18.38-11.72.47.2a21.78,21.78,0,0,0-5.62-2.55c-2.16-.75-3.33-1.31-5.53-2-4.53-1.39-7.25-1.34-11.91-2.07-3.63-.56-5.18-2.62-8-5.06a15.58,15.58,0,0,0-3-1.87,52.68,52.68,0,0,0-7.12-3.94c-1.58-.63-5.14-2.39-5.82-2.81-.42-.26-.61-.75-1.12-.75-1.92,0-2.74,1.24-4.5,2-2.18.9-3.38,1.6-5.63,2.35-3.84,1.26-6.07,2.44-10.12,2.44a31.81,31.81,0,0,1-9.66-1.13c-1.48-.37-2.32-.63-3.75-1.12a38.4,38.4,0,0,1-4.78-2"/>
  <path class="cls-3" d="M436.78,403c0-5.48,5.88-9.92,13.13-9.92s13.14,4.44,13.14,9.92-5.88,9.91-13.14,9.91S436.78,408.5,436.78,403Z"/>
  <text class="cls-4" transform="translate(446.58 407.03)">2</text>
</svg>
