<svg id="Red" xmlns="http://www.w3.org/2000/svg" viewBox="0 0 1019.21 924.84">
  <defs>
    <style>
      .cls-1 {
        fill: none;
        stroke: #00539f;
        stroke-miterlimit: 3.86;
        stroke-width: 3px;
        fill-rule: evenodd;
      }
    </style>
  </defs>
  <path class="cls-1" d="M182.7,737.38a60.08,60.08,0,0,0,6.59.72c7.31.61,11.29,1.88,18.6,1.88,3.94,0,6.15.14,10.08.19l6.57.56H229c3.28,0,4.83-1.92,7.73-3.38,5.11-2.53,8.39-3.28,13.88-4.87a127.21,127.21,0,0,0,20.25-7.31c11.29-5.16,18.61-6.75,29.81-12,5.44-2.54,23.91-13.46,30-16.5,4.69-2.35,6.89-5,12-5.82,2.81-.47,4.08-1.92,6.75-2.81,3.28-1.08,5.63-1.26,8.25-3.56s3.47-4.41,6.38-6.38c2.1-1.4,3.93-1.26,6-2.81,1.35-.89,2.1-2.06,3.75-2.25,1.17-.14,1.92.42,3,0,1.45-.56,2.15-1.31,3.75-1.5,1.45-.14,2.53.14,3.75-.56.89-.52.79-1.5,1.5-2.25,1.35-1.45,2.85-1.69,4.87-1.69,4.31,0,6.19,3.75,10.5,3.75,3.94,0,5.44-3,8.25-5.81,3-3,5.34-4.13,7.88-7.5,2.34-3.14,3.23-5.53,6.37-7.88v-6c0-3.57.75-5.58,1.88-9,2-6,3.75-10.12,9.18-13.5,3.68-2.27,6.65-3,10-4.3"/>
</svg>
