<svg id="NorfolkBristol" xmlns="http://www.w3.org/2000/svg" viewBox="0 0 1019.21 924.84">
  <defs>
    <style>
      .cls-1 {
        fill: none;
        stroke: #00539f;
        stroke-miterlimit: 3.86;
        stroke-width: 3px;
        fill-rule: evenodd;
      }
    </style>
  </defs>
  <path class="cls-1" d="M463,635.46a10.19,10.19,0,0,0-.74,4c0,2.81,1.31,4.36,1.31,7.17v3.66c0,7.87-5.63,11.48-5.63,19.36,0,5.62,3.19,8.43,3.19,14.06,0,6.75-3.89,9.84-6.94,15.94-1,2-2.06,2.67-3.18,4.5-3.05,4.87-2.82,8.62-4.69,14.06-1.6,4.64-2.86,7.36-6.38,10.87-2.76,2.77-5.15,3.52-7.5,6.57-2.72,3.51-3.79,5.9-6,9.75-3.93,6.75-6.42,10.54-10.12,17.43-2.06,3.85-2.63,6.43-5.25,9.94-1.69,2.3-2.58,3.8-4.5,6-7.55,8.67-13.78,11.67-20.63,20.81-2.11,2.82-3,4.69-4.87,7.69a78.66,78.66,0,0,1-8.63,11.44c-6.09,7-10.4,11.62-12.93,20.44-.57,2-3.19,8.81-4.32,12.56s-1.83,5.76-3,9.37c-2.53,7.69-4.31,11.72-6.56,19.5-2.62,9-6.61,12.94-10.12,21.57a110,110,0,0,0-4.69,14.43c-1,3.61-1.92,5.54-3,9.19l-.55,2.62c0,2.63.83,4.88,1.11,7.51v3.7c0,3.56-1.5,5.53-1.5,9.09,0,1.6.19,2.44.19,4,0,5.72-4.41,7.27-9.19,10.46,0,0-1.48,6.56-2.62,11-1.55,6-4.08,8.86-5.07,15-2,8.06-2.67,12.65-5.81,20.25-2.53,6.14-4.87,9.32-6.75,15.75-3.23,11.06-4.27,17.53-9.37,27.75-1.46,2.95-2.63,4.5-4.13,7.5-1.69,3.42-4.55,4.17-6.37,7.5-3.38,6-3.1,10.54-6.57,16.5-2.67,4.64-5.81,6.32-8.06,11.25-1.83,4.07-1.59,6.93-2.81,11.25-.66,2.39-1.6,3.65-2.44,6-1.22,3.28-1.64,5.43-3.37,8.43-2,3.52-3.94,5.68-3.94,9.75,0,2.91,1.69,4.32,3.19,6.75a37.15,37.15,0,0,0,6.18,8.25"/>
</svg>
