<svg id="Other_rail" data-name="Other rail" xmlns="http://www.w3.org/2000/svg" viewBox="0 0 1019.21 924.84">
  <defs>
    <style>
      .cls-1, .cls-2, .cls-3 {
        fill: none;
        stroke-miterlimit: 3.86;
      }

      .cls-1, .cls-3 {
        stroke: #939598;
      }

      .cls-1 {
        stroke-width: 0.5px;
      }

      .cls-2 {
        stroke: #f0649c;
        stroke-width: 2px;
      }

      .cls-3 {
        stroke-width: 6px;
        stroke-dasharray: 0.5 12;
      }
    </style>
  </defs>
  <polyline class="cls-1" points="-93.7 652.66 -93.11 654.59 -92.69 655.9 -91.88 658.28 -91.54 659.52 -90.33 662.91 -89.85 663.84 -87.25 667.34 -85.87 668.89 -85.11 669.96 -83.21 672.22 -79.28 677.68 -75.03 683.73 -74.29 684.3 -73.92 684.52 -73.27 684.75 -71.57 684.76 -70.43 684.4 -69.86 683.97 -69.07 683.52 -67.68 682.7 -66.06 682.25 -64.36 682.29 -63.34 682.61 -62.66 683.06 -56.38 688.34 -49.16 692.85 -45.45 694.98 -44.49 695.46 -42.39 696.07 -36.13 697.31 -34.55 697.71 -33.5 697.8 -30.77 697.46 -25.02 696.18 -23.06 695.79 -21.84 695.65 -18.63 694.27 -17.64 693.93 -16.3 693.84 -15.23 693.9 -13.13 694.46 -12.79 694.65 -10.24 695.4 -8.46 696.77 -7.5 698.15 -6.54 700.02 -5.72 701.33 -5.12 701.99 -3 703.69 7.55 711.35 9.84 713.31 14.17 717.13 17.87 719.75 20.28 721.06 25.85 726.18 27.41 727.95 30.85 732.23 33.45 735.61 34.98 737.41 35.43 738 36.45 739.65 37.69 741.16 38.26 742.03 38.59 743.05 38.67 744.22 37.98 749.4 37.49 752.19 36.94 756.29 37.16 758.11 37.75 761.35 37.94 762.45 38.75 766.76 39.67 771.44 39.84 771.98 40.29 772.87 42.41 776.15 42.95 777.29 44.24 781.7 44.26 784.11 44.06 784.61 43.26 785.91 42.15 787.16 37.72 791.34 36.92 792.25 36.38 793.18 35.92 794.37 35.83 796.3 35.97 798.14 37.65 803.62 40.02 810.6 40.47 811.57 42.08 813.72 44.88 816.32 48.16 819.27 49.23 820.75 49.71 821.77 50.49 824.53 51.34 825.43 53.13 826.83 53.55 827.34 54.11 828.42 55.21 832.05 56.22 834.72 62.79 848.46 64.25 851.61 64.85 852.98 65.46 854.77 65.72 856.05 65.91 859.39 66.27 860.52 70.11 867.88 70.9 869.19 72.03 870.58 74.43 872.57 75.67 873.17 79.04 875.19 80.8 876.25 83.94 878.98 85.24 879.72 87.2 880.35 88.39 880.89 91.5 882.77 92.29 883.48 93.25 883.91 94.44 884.62 95.15 885.11 97.44 886.45 98.66 887.33 101.69 890.03 103.95 891.74 105.56 892.67 106.67 893.5 107.23 894.01"/>
  <polyline class="cls-1" points="240.37 896.39 240.78 894.19 241.33 890.87 242.02 886.04 241.88 881.08 241.33 876.38 240.5 871.9 239.68 868.73 239.68 864.86 239.68 855.62 239.68 852.58 241.75 849.54 248.09 841.4 250.16 838.78 250.85 836.57 250.44 835.75 251.41 832.57 252.88 827.79"/>
  <polyline class="cls-1" points="258.52 823.51 247.94 831.53 244.5 834.48 237.13 840.81 235.8 841.95 233.73 843.52 230.11 845.68 229.03 846.14 226.94 846.76 225.92 846.87 224.78 847.09 222.43 847.1 217.32 846.29 212.5 845.68 211.9 845.74 210.54 846.08 208.76 846.99 206.75 848.58 181.33 873.11 176.32 876.69 175.25 877.35 173.8 878.43 170.66 880.54 169.84 880.88 160.22 887.47 158.63 888.56 147.78 895.64 144.08 897.75 142.92 898.26 141.9 898.85 139.97 899.64 138.32 900.04 136.99 900.03 136.65 900.03 136.28 899.88 135.31 899.68 132.23 898.29 131.44 897.81 127.81 896.55 125.38 895.97 119.45 895.16 117.24 895.04 112.36 894.51 111 894.43 108.73 894.11 107.23 894.01 104.37 893.87 102.01 893.35 101.16 892.93 99.3 892.24 92.33 889.1 89.5 887.47 87.38 886.02 83.42 883.6 82.03 883.09 79.59 882.99 78.28 883.1 76.89 883.5 73.49 884.99 70.73 885.63 68.75 885.46 67.59 885.2 66.51 884.83 58.67 880.95 57.57 880.15 56.29 879.08 52.67 875.12 52.11 874.46 50.84 872.96 49.68 871.28 47.65 867.81 46.26 866.64 45.38 866.14 44.56 865.85 43.66 865.48 40.54 864.44 37.71 863.68 35.89 863.39 34.28 863.01 32.69 862.78 27.62 861.77 26.32 861.17 15.96 854.93 14.01 854.19 13.32 854.11 9.98 853.24 3.8 851.54 0.97 850.64 0.37 850.32 -12.85 845.07 -15.65 844.21 -22.12 843.02 -23.88 842.8 -26.68 842.53 -29.69 842.81 -30.37 843.03 -31.02 843.4 -33.1 845.13 -36.34 848.69 -38.64 851.04 -40.52 852.64 -44.98 855.58 -47.37 857.08 -50.09 858.88 -54.07 861.9 -56.26 863.71 -65.64 871.14 -69.36 873.71 -70.72 874.44 -73.14 876.02 -74.1 876.62 -75.32 877.35 -84.33 882.92 -92.56 888.16 -95.86 890.11 -102.67 894.37 -103.3 894.94 -103.75 895.5 -103.81 895.63"/>
  <line class="cls-2" x1="22.46" y1="437.88" x2="22.46" y2="437.9"/>
  <polyline class="cls-1" points="-22.47 618.58 -22.79 618.94 -23.16 620.2 -23.33 622.34 -23.34 623.63 -22.78 627 -22.27 628.68 -21.43 630 -20.95 630.97 -20.3 631.74 -19.73 632.22 -18.94 632.48 -17.69 632.63 -15.62 633.18 -13.95 633.74 -13.33 634.14 -12.99 634.74 -12.68 635.76 -12.43 637.18 -11.19 638.68 -10.34 639.49 -8.81 640.42 -7.22 640.93 -5.64 641.7 -4.65 642.53 -4.31 643.13 -2.99 647.63 -1.35 650.17 -1.02 651.02 -0.12 656.09 -0.16 656.45 -0.3 657.74 -0.98 660.29 -1.04 661.32 -0.79 662.17 -0.39 662.65 0.23 663.1 0.99 663.48 2.81 663.76 4.37 663.82 7.85 664.25 9.64 665 10.37 665.42 16.42 671.88 17.5 672.97 18.82 674.69 18.99 676.17 18.85 676.85 18.59 677.39 18.45 678.21 18.78 679.37 19.49 680.28 20.28 681.1 22.2 683.92 24.04 685.74 24.52 686.28 24.86 686.99 25.53 690.27 26.24 691.39 28.44 693.6 30.45 695.63 33.13 698.07 36.7 701.57 39.07 703.85 45.58 708.51 46.34 708.99 47.28 709.74 48.1 710.22 49 710.61 52.21 711.11 55.38 711.49 56.89 711.84 57.57 712.17 60.59 714.2 62.83 715.23 63.79 715.36 66 715.23 68.62 714.44 72.28 712.76 74.78 711.37 75.57 711.14 76.34 711.15 77.11 711.52 77.81 712.35 78.18 713.06 79.16 717.23 79.41 718.17 80.03 719.15 81.75 721.17 82.06 722.31 81.89 724.52 81.94 725.4 82.25 726.54 82.67 726.94 83.27 727.3 84.23 727.59 86.84 727.57 90.72 727.59 91.38 727.98 92.22 728.75 92.65 729.54 92.87 730.28 93.01 731.67 92.98 732.86 93.37 734.2 93.85 735.19 94.59 736.24 95.69 737.09 96.91 737.58 98.24 737.44 99.49 737.1 100.48 736.31 101.33 735.38 103.64 734.11 104.37 733.89 105.59 733.88 106.42 734.17 107.06 734.75 107.77 735.65 109.72 738.78 112.63 742.96 114.95 744.94 117.33 746.6 118.79 748.62 119.39 749.18 121.73 751.11 122.42 751.85 123.03 752.71 124.05 753.85 128.38 757.94 129.31 758.54 129.99 759.3 130.61 759.6 131.78 760.33 134.77 763.52 136.93 764.15 140.78 765.1 142.37 765.16 143.33 764.76 143.9 764.17 144.58 763.23 145.13 762.16 146.53 758.5 147.32 757.51 148.2 756.86 149.51 756.53 150.73 756.99 152.79 757.27 153.9 757.08 155.24 756.6 155.89 756.01 157.59 753.97"/>
  <polyline class="cls-1" points="193.67 597.32 192.59 599.08 191.65 600.7 191.65 602.45 192.05 605.15 193.26 607.18 194.75 609.74 195.29 611.77 194.48 615.55 193.69 616.47 191.85 617.24 182.53 623.72 178.22 626.28 169.84 629.39 157.42 629.79 150.13 629.93 145.81 629.93 143.25 630.47 142.03 633.03 141.63 636.4 141.9 638.56 142.3 639.38 143.66 641.53 145.68 644.91 149.19 649.63 152.29 653.01 154.99 654.63 158.1 663.67 160.53 668.94 163.37 678.52 163.77 679.47 165.25 683.92 165.39 687.84 165.12 690.54 164.58 692.83 162.55 699.85 161.21 701.07 160.26 703.63 160.66 706.34 159.85 713.76 158.64 716.46 157.42 718.08 156.48 719.16 155.5 720.53 154.18 721.74 153.17 723.37 152.86 724.69 152.36 726.11 152.25 728.14 152.76 729.46 153.16 730.25 155.38 738 155.43 738.57 155.51 739.41 155.85 740.75 155.93 743 155.56 744.72 155.38 745.04 155.1 746.28 155.1 746.33 155.12 747.24 155.35 748.24 156.92 752.55 157.4 753.52 160.66 761.51 161.03 762.43 161.6 763.59 162.94 767.6 163.62 770.18 164.8 773.64 167.9 779.66 169.48 783.21 169.85 783.84 171.29 786.56 172.23 788.07 174.17 789.76 179.11 793.32 182.55 795.69 185.59 797.89 186.24 798.34 187.27 799.25 187.64 799.87 187.7 800.95 187.19 803.05 187.31 803.67 187.88 804.31 189.32 805.02 190.69 805.93 191.79 806.58 192.37 806.86 194.1 807.91 195.17 808.25 196.76 807.98 199.03 807.18 199.34 807.18 204.11 808.59 211.77 810.78 213.13 811.19 213.59 811.25 214.38 811.25 214.67 811.27 220.52 807.54"/>
  <polyline class="cls-1" points="409.12 580.57 406.87 583.36 406.55 583.84 405.89 584.66 404.4 586.47 401.59 588.75 397.46 591.79 395.41 593.12 392.93 593.91 386.44 595.42 384.32 595.86 382.66 597 381.83 597.97 380.35 599.84 372.74 610.95 371.68 612.66 367.7 618.26 366.51 619.54 361.59 624.35 359.73 625.91 355.59 628.38 352.84 630.86 352.14 631.93 350.98 637.92 350.27 639.43 347.61 642.75 346.43 644.9 342.25 654.58 340.14 658.7 339.58 659.75 339.18 660.77 337.78 662.8 333.4 669.24 332.81 670.3 329.26 674.77 327.88 676.75 327.15 678.01 322.3 684.72 320.86 687.23 315.41 694.93 313.69 697.04 306.08 704.97 303.96 706.87 296.32 712.12 294.79 713.08 293.04 714.34 291.84 715.05 285.13 721.08 275 732.17 259 741.56 236.92 745.98 233.6 746.53 224.22 749.84 222.01 752.05 190.25 798.69 187.32 803.65 174.78 823.9 171.89 828.46 169.82 834.25 168.58 836.73 167.92 839.93 167.92 843.37 168.1 847.88 167.2 861.99 164.86 871.07 164.44 879.76 160.06 893.06 158.62 898.82"/>
  <polyline class="cls-1" points="243.98 576.22 243.93 577.52 244.25 579.4 245.49 594.62 245.72 596.8 245.84 597.28 246.05 599.07 246.78 608.91 247.64 621.33 247.75 622.23 248.24 630.28 248.56 633.76 249.24 644.32 249.57 649.73 249.46 651.06 248.79 653.62 248.11 655.29 244.53 661.24 237.7 672.43 234.28 678.06 232.85 680.13 228.44 685.44 220.95 694.2 220.27 695 218.8 696.41 217.98 696.96 217.04 697.36 215.21 697.81 213.7 697.82 212.17 698.03 210.07 698.42 207.92 699.29 206.81 699.91 205.32 700.74 203.57 702.05 201.59 703.99 200.15 705.86 199.27 707.36 197.14 710.69 195.18 713.76 191.99 718.53 190.21 721.4 189.08 722.85 188.43 723.47 184.41 727.08 182.35 728.82 181.3 729.73 180.99 729.93 180.37 730.27 179.75 730.56 178.22 731.08 169.86 733.6 169.65 733.62 168.35 733.92 167.61 734.23 166.5 734.55 164.29 735.3 162.61 736.2 161.79 736.85 160.48 738.35 159.71 739.6 157.86 742.54 155.1 746.33"/>
  <polyline class="cls-1" points="245.15 575.56 248.21 575.01 249.49 575.32 250.79 576 253.66 577.89 254.46 578.34 264.91 585.96 266.5 586.84 273.41 589.91 275.45 590.83 279.14 593.21 285.28 597.73 285.91 598.38 287.11 599.76 288.08 601.52 288.5 602.59 288.73 603.79 288.74 604.84 288.85 605.32 288.79 611.38 288.84 612.04 289.44 613.88 292.18 618.69 292.58 619.57 293.25 623.14 293.5 624.73 294.16 626.85 297.11 634.2 297.85 635.89 298.88 638.26 299.5 639.45 300.48 641.04 306.31 649.89 307.65 651.2 311.63 654.16 313.08 655.72 314.17 657.19 318.44 663.48 319.12 664.35 322.62 667.43 323.73 668.53 324.78 669.36 325.74 670.2 330.18 674.05 331.35 675.15 332.11 675.66 333.51 676.33 336.2 677.2 337.34 677.37 338.53 677.73 339.67 678.38 340.83 679.32 341.6 680.3 347.13 688.77 348.01 689.93 350.71 692.76 358.65 700.56 360.27 702 369.33 708.01 376.92 712.81 378.4 713.94 379.54 714.88 382.18 717.65 386.31 723.53 388.64 727.12 390.1 729.36 390.87 731.49 391.01 732.28 391.5 733.95 391.64 734.55 393.06 739.09"/>
  <line class="cls-2" x1="309.66" y1="564.58" x2="308.75" y2="564.74"/>
  <polyline class="cls-1" points="132.39 511.67 130.79 510.08 128.72 507.37 128.72 506.09 128.88 499.71 129.04 494.61 128.72 493.34 128.4 492.54 127.92 491.9 126.81 490.79"/>
  <polyline class="cls-1" points="263.31 518.57 266.29 525.08 266.63 525.53 267.31 526.12 269.3 526.94 270.46 527.36 271.2 527.81 271.77 528.41 272.45 529.9 273.03 530.84 274.28 532.14 275.02 532.93 278.77 536.67 280.19 537.94 280.74 538.27 281.87 538.95 283.83 539.77 284.96 540.39 286.5 541.52 287.38 542.42 289.21 545.82 290.66 547.69 291.26 548.17 293.19 549.15 294.27 549.63 294.63 549.95 295.38 550.54 296.8 551.73 299.64 554.92 302.86 558.8 305.76 561.91 306.19 562.59 307.16 563.54 307.84 564.25 308.75 564.74"/>
  <polyline class="cls-1" points="241.94 576.71 242.28 575.97 242.4 574.89 242.28 574.02 240.37 569.31 238.59 565.92 237.88 564.58 237.34 563.71 236.4 562.79 232.99 560.74 232.11 560.23 230.55 559.33 229.38 558.48 228.3 557.29 227.02 555.49 226.25 553.81 224.28 549.65 223.48 548.3 222.54 547.39 220.92 546.4 218.79 545.44 217.92 545.28 216.72 544.97 214.6 544.97 212.39 545.18 211.48 545.27 209.84 545.44 208.75 545.45 201.98 546.09 200.31 546.41 196.29 547.87 193 548.41 190.79 548.57 186.31 548.63 183.67 548.99 176.28 550.25 169.87 550.9 169.23 550.92 168.52 551.09 166.87 551.22 166.19 551.16 165 550.73 162.82 549.68 161.92 548.99 161.21 548.69 151.27 542.78 149.32 541.59 148.41 540.82 147.62 539.88 146.32 537.41 145.56 535.37 144.58 532.1 142.64 526.23 141.48 523.7 140.78 522.54 138.32 518.11 135.61 513.82 134.91 513.09 134.22 512.57 132.76 511.63 132.13 511.48 131.49 511.41 130.85 511.34 130.23 511.53 129.04 512.35 125.8 515.44 123.55 517.84 119.51 522.68 117.61 524.68 116.53 525.59 115.28 526.38 111.33 528.75 110.42 529.01 109.94 529.06 109.45 529.25 107.95 529.57 107.3 529.62 105.74 529.92 102.95 530.28 100.86 530.2 99.81 529.8 98.71 529.21 97.04 527.92 94.21 526.01 92.28 525.64 86.47 525.65 84.45 526.04 82.32 526.97 81.42 527.51 78.01 529.09 75.25 530.24 74.01 530.55 72.7 530.6 65.33 530.22 64.19 530.13 63.57 530.16 62.72 530.04 56.8 529.76 54.39 529.98 51.63 530.04 50.64 529.74 48.61 528.76 47.27 528.24 40.9 526.09 40.16 525.66 39.66 525.04 39.26 524.42 39.03 523.71 38.95 523 39.19 519.74 40.4 512.11 40.6 511.2 40.6 510.75 41.72 504.26 42.22 500.46 43.16 496.16 43.2 494.71 43.15 493.12 43.09 492.07 44.15 488.9 44.47 487.12 44.55 485.92 44.67 484.65 44.7 484.11 44.57 481.67 43.95 478.72 43.31 474.41 42.75 472.05 41.48 468.56 40.97 467.62 39.96 464.78 39.97 463.76 39.8 462.41 39.43 460.84 39.01 459.87 38.22 458.49 37.2 456.3 36.36 455.05 35.37 453.29 34.24 451.56 33.19 450.31 30.14 447.66 25.16 443.51 24.31 442.43 23.61 441.32 22.71 438.76 22.46 437.9 22.46 437.88 21.92 435.99 21.42 433.29 21.54 430.94 22.26 427.2 22.77 425.75 23.23 424 25.03 418.1 25.86 416.68 27.36 414.65 28.33 412.44 28.51 410.96 28.48 409.95 28.07 407.6 27.14 405.01 26.29 403.56 24 400.47 23.04 399.69 22.3 398.47 22.02 397.68 21.94 396.37 21.66 395.24 21.16 393.82 20.59 392.72 19.49 391.43 17.99 390.6 17.14 390.35 15.1 390.01 14.24 390.09 13.39 390.52 10.98 392.26 10.44 392.6 9.07 393.08 3.49 394.09 1.79 394.56 1.22 395.27 -1.18 396.72 -1.54 396.96 -1.85 397.02 -2.67 397.18 -3 397.53"/>
  <polyline class="cls-1" points="211.51 348.32 210.92 349.12 210.3 350.14 209.51 352.76 208.84 354.82 208.73 355.97 209.22 359.31 210.4 362.49 210.94 364.49 211.46 365.74 211.71 367.27 211.81 368.63 212.06 370.61 212.74 376.42 212.6 378.86 211.99 381.39 211.9 381.62 211.08 382.27 208.59 383.64 206.88 385.13 205 386.72 202.39 388.02 200.8 389.32 198.63 391.35 196.17 393.38 192.55 395.69 189.08 398.01 185.02 400.47 180.39 402.5 174.89 403.8 167.37 405.54 163.89 406.4 162.16 407.85 162.01 408.87 161.57 410.31 160.27 411.76 159.69 413.79 158.97 415.81 156.51 418.56 154.63 420.59 150 422.76 145.67 424.77 144.64 425.08 134.65 428.11 134.8 428.13 131.31 428.82 127.84 429.27 123.45 430.47 121.2 431.29 118 432.16 115.93 432.58 111.61 433.59 110.71 433.95 110.19 434.49 109.94 435 108.93 438.8 108.56 439.66 107.48 441.52 105.61 443.95 104.89 445.46 104.75 446.36 104.97 447.3 105.45 448.35 106.63 450.26 107.42 452.06 107.48 452.89 107.39 453.4 106.22 456.21 104.79 459.14 104.42 459.88 103.74 462.01 103.71 462.97 103.82 463.96 104.33 464.84 105.26 465.84 105.91 466.36 107.33 467.16 108.12 467.38 109.31 467.56 110.64 467.56 114.22 467.66 115.07 467.94 115.97 468.6 116.45 469.22 116.91 470.16 117.24 471.1 117.18 472.96 116.49 474.69 115.56 476.08 115.01 477.38 114.95 477.98 115.17 480.08 115.77 482.43 116.33 483.36 117.12 484.22 119.19 485.78"/>
  <polyline class="cls-1" points="-22.17 91.87 -20.98 92.53 -19.02 93.35 -15 95.38 -14.35 95.67 -12.99 96.71 -10.08 100.25 -8.49 101.66 -6.29 102.92 -2.77 104.32 0.23 105.57 6.83 107.68 9.09 108.58 11.5 109.38 13.03 110.17 15.38 111.28 16.82 111.89 19.29 113.48 20.02 113.74 22.66 115.22 23.37 115.79 23.51 115.99 24.78 117.64 25.34 118.61 25.99 120.08 28.5 124.17 33.33 132.78 34.26 134.31 35.87 137.55 36.48 139.62 38.33 148.5 38.5 149.72 38.83 150.74 39 151.76 39.23 152.38 40.89 154.32 42.96 155.57 46.13 157.4 47.26 158.05 48 158.79 49.07 160.61 50.16 164.19 51.23 167.19 52.95 170.66 53.84 175.37 54.01 177.35 54.03 178.57 54.82 180.79 56.24 182.29 59.18 185.7 65.93 193.26 68.95 196.7 70.79 198.58 73.28 200.69 74.53 201.94 75.71 203.64 76.05 203.99 76.78 205.21 78.31 207.59 79.18 209.32 79.61 209.76 81.41 212.82 82.32 214.64 83.22 216.19 83.7 217.33 84.77 219.35 85.25 220.51 85.64 221.12 85.76 221.7 85.38 223.73 85.38 224.41 85.69 224.82 86.6 225.34 86.96 225.51"/>
  <polyline class="cls-1" points="-3.41 382.99 -3.13 381.56 -2.46 378.01 -2.36 377.39 -1.65 375.73 -1.17 374.59 0.09 372.76 4.15 367.71 5.6 365.85 9.19 361.58 10.7 360.05 13.4 357.17 15.42 355.27 15.98 354.22 16.1 353.77 16.36 352.21 16.86 345.49 17.35 343.23 18.09 341.55 18.8 340.53 19.82 339.43 21.3 338.1 23.97 336.24 28.49 332.71 38.22 322.01 51.41 307.11 54.17 303.74 56.68 299.81 57.85 298.55 61.33 293.86 70.5 280.28 71.41 278.81 72.41 277.1 73.8 275.47 75.88 273.88 77.78 272.13 78.35 271.51 79.32 269.7 79.86 268.45 80.59 263.75 82.83 251.64 83.75 247.4 83.75 246.37 84.1 244.58 86.23 233.28 86.49 232.32 87.44 227.38 88.18 225.54 87.67 224.87 87.45 223.81 87.43 222.45 87.74 220.35 89.2 215.34 90.12 211.83 90.44 211.29 90.94 210.72 92.45 209.57 96.06 206.31 96.72 205.61 97.26 204.72 97.83 203.2 101.64 181.6 103.51 171.15 103.74 168.76 103.66 168.19 103.41 167.48 102.93 166.75 102.53 166.33 101.94 165.92 98.01 162.39 96.73 161.02 95.83 159.66 94.81 158.41 93.97 156.96 93.29 155.52 92.92 154.41 92.73 153.34 92.7 152.09 93.02 150.36 93.22 149.81 93.68 149.16 95.44 147.64 97.8 145.01 98.97 142.94 99.48 141.42 99.75 138.44 99.81 136.91 100.73 132.26 101.31 128.27 100.78 125.23 98.92 118.42 98.79 116.77 98.96 115.27 99.48 112.49 99.68 111.01 99.74 109.79 99.58 108.55 98.63 105.03 98.49 103.79 98.43 102.14 98.75 99.61 98.81 98.17 98.96 97.23 99.99 94.78 101.29 93.27 103.88 91.27 107.2 89.55 108.11 88.93 108.68 88.67 108.91 88.45 109.96 87.85 112.66 86.05 118.8 81.7 119.51 80.76 120.33 79.94 122.13 77.33 125.77 72.36 126.14 71.6 126.68 69.95 128.24 59.66 129.18 57.76 129.87 56.6 130.19 55.84 131.75 52.98 132.56 47.35"/>
  <polyline class="cls-1" points="131 226.89 131.31 226.71 134.12 226 135.59 225.43 139.54 223.53 140.65 222.98 146.64 220.04 149.2 218.69 154.9 216.1 155.75 215.76 156.81 215.47 160.13 215.15 160.49 215.01 161.77 214.87 163.53 214.59 165.09 214.22 166.45 213.44 167.73 212.45 168.05 211.99 168.99 209.42 169.73 206.08 170.63 203.16 171.25 202.47 171.98 201.93 174 201.31 176.32 200.81 179.1 199.98 180.31 199.41 181.96 198.81 183.26 198.02 183.91 197.56 185.35 196.19 186.65 194.58 196.03 184.25 198.3 183.46 199.06 183.4 199.34 183.47 200.37 183.45 205.31 184.6 205.59 184.54 206.72 184.3 213.47 181.64 214.37 181.25 219.67 179.73 225.85 178.21 226.87 178.12 227.5 178.06 230.36 177.94 231.27 177.86 233.25 177.1 240.69 172.32 241.65 171.55 243.41 169.9 245.87 167.32 248.33 164.96 252.2 160.94 252.56 160.52 256.1 156.23 258.67 153.75 259.49 152.13 260.33 149.75 260.93 148.83 261.77 148.24 264.07 146.67 265.03 145.71 266.53 144.42 269.58 141.55 270.91 140.18 276.59 134.72 283.57 126.93"/>
  <polyline class="cls-1" points="341.68 134.31 341.57 137.34 341.21 138.44 340.79 139.8 340.31 140.97 340.05 141.79 339.12 143.97 338.62 144.86 334.81 151.51 333.59 153.58 332.15 155.8 331.76 156.17 329.35 157.82 327.12 159.35 326.14 160.02 317.38 166 315.03 167.71 310.4 172.22 307.43 174.96 306.6 175.7 305.33 177.58 304.26 178.68 300.72 180.76 299.08 181.42 297.75 182.14 296.56 182.5 292.75 184.49 292.11 184.79 288.97 186.9 287.55 188.03 285.6 189.83 284.95 190.73 282.75 195.9 281.82 197.49 280.84 199.91 278.95 212.79 278.5 214.77 278.05 215.6 276.83 217.25 274.94 219.15 271.55 222.22 270.61 223.41 270.3 224.29 268.43 231.62 266.23 237.5 265.95 238.66 265.31 243.57 265.15 245.52 264.65 248.88 264.38 253.13 264.1 254.29 263.14 257.19 261.22 261.02 259.95 263.1 258.21 265.71 256.09 270 254.99 272.07 252.79 276.93 251.92 280.45 250.56 287.15 249.91 289.08 247.14 293.67 245.73 296.6 244.93 298.69 244.26 301.67 243.84 304.98 244.2 309 244.93 316.38 245.65 318.87 247.76 324.82 250.04 327.84 252.18 332.49 253.44 335.35 254.52 336.9 254.92 337.42 256.48 338.43 260.55 340.69 262.11 341.73 263.36 343.25 267.87 351.94 269.55 354.72 270.24 355.91 270.78 357.04 271.07 358.78 270.94 361.18 270.46 363.88 268.32 369.98 266.54 378.87 266.37 380.5 266.47 383.23 266.5 384.42 266.56 387.46 266.18 389.56 265.27 391.63 263.56 394.69 260.31 400.35 259.8 401.09 258.93 402.74 256.54 408.62 255.13 412.81 254.49 415.37 253.91 420.11 253.19 427.79 252.66 429.47 252.04 431 250.44 435.6 247.18 444.45 245.8 447.64 244.53 450.4 243.24 453.57 242.9 455.23 241.65 463.65 241.12 466.54 240.56 468.16 236.93 477.62 236.59 479.18 234.93 491.4 234.06 494.35 233.36 496.54 233.14 497.88 232.89 500.99 232.55 509.22 232.38 510.41 231.94 512.03 227.99 519.53 222.32 529.41 218.65 535.63 218.37 536.97 218.43 538.59 219.01 542.58 219.43 545.73"/>
  <path class="cls-1" d="M184.34-296.43l24.74,31.49,6.75,18,3.37,16.87v21.36l-7.87,21.37-18,38.24v29.23L206.83-76,219.2-47.91l7.88,19.12L232.7-.68l-1.13,13.5-2.25,14.62.76,23.28H230l1.86,3.68,1.43,1.69,1.93,1.44,1.42.62,2.87,1.3,1.19,1.13.66.76,1.48,2.24.6,1.64.2,1-.11,1.92-.52,2.7-.48,1.42-.65,1.3-1.41,3.78-.12,1.38v.15l.09.69.18,1.12.88,3.12.92,2,4.66,2.71,2.75,1.89,4.89,3.82L256,95.71l1.4,2.49,1.37,3,.49,1.74.86,5.47.35,1.16.45,1.13.46.79,2.62,3.08,2.07,2.1,1.34,1,12.18,6.77,2.22,1.4,1.74,1,1.64.88.26.28,2.16,1.1.74.22,2.23.08,1.79-.23,2.5-.15,2.38-.17,7.14-.89,4.59-.8,4.17-.92,1.42-.26.4-.08,9.83-2s12.91-3.14,14.76,3.77"/>
  <polyline class="cls-1" points="701.34 327.69 701.97 327.71 703.48 327.6 705.85 327.49 708.99 328.14 710.28 328.25 711.37 328.47 713.63 328.57 715.57 328.14 717.2 328.57 718.6 328.9 721.09 328.47 724.43 327.71 726.05 326.95 728.32 325.98 729.94 324.58 731.13 322.96 732.21 321.66 733.51 320.9 735.13 320.58 736.1 319.82 737.61 319.82 738.69 319.28 740.42 317.88 742.15 316.04 743.66 313.77 744.85 312.26 747.01 310.43 749.06 308.92 750.36 308.16 751.44 306.11 752.2 303.94 752.52 300.49 752.63 298.22 752.63 297.68 752.41 296.92"/>
  <polyline class="cls-1" points="430.54 884.27 431.25 885.11 432.68 887.17 433.59 888.31 438.58 895.52 443.07 902.18 451.08 913.52 454.64 918.54 454.98 919.29 458.35 924.16 461.51 928.43 464.56 932.96 480.57 956.14 495.56 977.33 498.6 981.77 501.68 985.92"/>
  <polyline class="cls-1" points="430.54 884.27 428.99 882.04 428.51 881.15 428.43 880.67 428.43 880.5 428.83 878.96 429.5 877.06"/>
  <polyline class="cls-1" points="644.78 878.74 642.3 877.92 640.64 878.13 638.99 879.78 618.88 891.18 613.91 893.04 600.85 894.91 597.75 895.12 595.88 894.49 592.98 892.84 592.36 889.94 589.87 883.72 588.83 879.78 585.93 875.01 576.4 874.39 571.22 874.6 568.53 872.32 564.17 869.01 561.07 867.55 559.2 869.22 552.57 871.91 547.38 873.15 546.35 875.64 546.35 875.64"/>
  <polyline class="cls-1" points="702.99 815.2 700.74 816.88 699.13 819.02 696.99 822.5 695.39 825.45 692.44 833.47 689.5 841.77 688.7 844.71 686.82 847.65 685.22 851.13 682.54 856.22 676.92 863.71 670.16 873.85 667.01 880.1 659.28 894.55 658.27 896.12 650.55 912.53"/>
  <polyline class="cls-1" points="444.97 690.06 444.72 691.79 444.7 693.36 444.99 696.27 444.96 698.06 444.88 698.69 444.13 701.32 441.62 708.05 440.61 710.15 437.92 713.76 435.86 715.99 434.59 717.1 433.14 717.72 429.2 718.59 427.71 719.04 426.85 719.3 420.28 722.98 419.89 723.31 418.64 723.94 417.17 725.11 415.7 727.08 413.47 730.26 412.06 732.13 409.86 735.23 409.03 736.34 408.47 737.16 404.15 742.08 403.27 742.97 402.4 744.08 401.83 744.67 401.52 745.15 400.7 746.2 400.36 746.66 397.85 752.54 396.05 756.85 394.89 759.07 392.64 761.97 390.12 764.55 388.73 765.75 385.92 768.13 385.54 768.45 377.47 774.63 372.69 778.53 372.04 779.16 371.56 779.78 371.14 780.58 370.58 782.26 370.41 783.39 370.47 784.58 370.42 785.91 370.99 788.07 371.37 790.28 371.32 792.01 370.98 793.5 370.25 795.16 369.4 796.07 369.06 796.55 365.3 800.16 364.4 801.27 363.35 803.57 361.77 807.46 360.11 810.05 359.07 811.5 348.98 823.38 345.9 826.97 345.22 827.85 342.05 830.1 339.98 831.1 339.1 831.41 335.99 831.98 332.7 832.5 331.08 832.91 327.91 834.16 327.15 834.48 326.18 834.9 323.92 836.81 321.94 839.29 312.93 851 312.34 851.85 311.38 853.78 310.82 856.07 310.23 860.02 309.52 867.28 309.3 869.19 309.05 871.8 308.74 873.89 307.97 881.69 308.01 884.36 308.01 885.15 308.42 890.14 309.23 893.74 310.06 896.32 310.77 898.45 316.38 913.68 317.62 919.06 318.24 925.06 318.65 938.3 318.44 943.88 317.83 946.37 315.55 949.67 314.1 951.75 310.17 958.98 307.07 962.09 300.15 971.76"/>
  <polyline class="cls-1" points="480.19 572.11 478.55 575.59 477.25 578.83 476.17 581.86 475.74 583.15 475.31 592.88 472.93 605.19 472.93 607.57 472.72 609.73 473.36 611.02 474.11 611.58 475.5 611.67 479.11 612.13 479.98 612.31 480.41 612.33 483.48 612.92 485.46 613.68 486.8 614.5 487.28 614.79 487.76 615.09 491.94 617.83 493.11 618.59 494.1 619.06 498.79 621.02 501.29 622.14 506.25 625.31"/>
  <polyline class="cls-1" points="531.85 766.79 532.4 767.04 533.76 767.98 535.42 769.81 535.96 770.95 535.98 771.11 536.27 772.82 536.69 779.66 536.91 780.81 538.05 786.8 538.8 791.85 538.81 791.92 539.29 794.31 540.16 797.68 540.64 799.55 540.72 800.49 540.96 803.16 541.02 805.88 540.86 807.27 540.57 808.72"/>
  <polyline class="cls-1" points="618.23 690.96 616.38 691.95 613.08 693.8 609.17 695.38 607.13 696.06 603.64 697.38 600.24 699.32 598.36 701.05 598.18 701.22 591.85 708.16 586.79 713.6 578.32 727.38 572.9 741.84 568.08 749.37 565.67 754.49 563.26 762.32 561.46 765.63 559.64 767.74 556.33 769.85 553.02 773.76 547.9 777.98 543.98 783.7 542.78 789.42 543.08 791.23 543.68 796.65 542.78 801.17 541.41 804.07 540.59 808.17 538.41 819.02 537.51 822.31 536.61 825.15 536.16 827.59 536 831.53 536.07 832.9 536.61 835.58 536.87 836.58 538.71 844.43 541.86 857.21 542.33 859.42 543.16 862.54 543.33 863.28 544.13 866.76 544.63 868.92 544.91 869.73 545.02 870.26 560.91 945.35 560.93 945.64"/>
  <polyline class="cls-1" points="411.56 555.16 411.57 554.72 411.98 551.14 412.32 549.73 413.11 547.76 413.53 547.22 416.38 544.06 419.58 540.4 420.3 539.65 421.7 538.2 423.03 537.18 428.46 533.39 429.25 532.5 430.21 532.14 430.81 532.02 432.17 532.11 433.7 532.67 434.08 532.92 434.11 533.38 433.38 536.16 433.13 537.67 432.89 538.48 432.87 538.54 432.22 539.53 431.94 541.13 431.72 541.6 431.61 542.29 431.95 543.25 432.15 543.63 431.96 546.29 432.13 547.45 432.62 548.32 433.27 549.29 434.16 550.82 433.96 551.5 432.86 552.07"/>
  <polyline class="cls-1" points="438.96 443.04 437.24 443.67 436.05 443.98 433.44 444.87 430.04 446.07 428.23 446.72 426.58 446.87 423.26 446.69 422.55 446.55 422.3 446.44 421.06 446.23 419.35 445.94 417.02 445.57 416.17 445.57 415.35 445.46 414.47 445.61 413.7 445.55 412.65 445.7 411.52 445.76 403.64 446.98 402.9 447.2 402.37 447.55 399.46 449.49 398.66 450.03 397.53 450.54 395.97 450.77 391.82 450.55 391.03 450.39 389.3 450.26 388.39 450.37 387.86 450.57 387.2 451 385.45 452.28 384.01 453.07 382.39 453.77 381.6 454.08 380.66 454.31 380.07 454.23 379.3 453.8 378.45 453.2 377.94 452.99 376.63 452.59 375.73 452.63 374.45 452.96 372.47 454.02 368.9 456.1 367.17 456.88 366.46 456.99 365.05 457.4 363.29 457.54 361.25 457.32 359.46 457.27 359.06 457.27 358.58 457.44 357.79 457.59 357.05 457.55 356.08 457.11 355.77 456.82 355.29 456.63 353.65 456.89 352.74 457.03 348.6 457.07 347.18 457.27 346.22 457.74 345.23 458.02 342.11 459.31 339.36 459.9 327.8 461.73 325.45 462.08 321.76 462.77 320.06 462.92 318.33 463.29 310.2 464.57 282.99 469.21 280.81 469.54 279.64 469.79 275.02 470.63 272.39 470.92 267.34 471.19 266.09 471.36 263.34 471.58 260.08 471.7 259.23 471.76 255.12 472.14 252.12 472.97 250.41 472.98 248.71 472.59 246.86 471.77 244.03 469.94 240.56 468.16 235.5 465.93 232.07 464.5 227.75 462.49 201.57 451.13 197.54 449.29 192.88 447.29 192.06 446.96 191.24 446.48 189.81 446 187.32 444.93 184.53 443.66 183.4 443.22 181.07 442.17 179.88 441.75 176.02 440 169.85 437.46 165.12 435.3 163.96 434.55 161.72 433.41 157.44 431.53 154.41 430.59 149.25 428.56 146.82 427.82 146.31 427.79 143.59 427.19 141.63 426.98 140.53 427.18 138.6 427.71 136.75 428.16 134.8 428.13 134 427.95 132.39 427.77 129.55 428.17 118.91 430.63 114.37 431.28 111.73 431.35 110.83 431.32 109.81 431.32 106.32 431 104.51 430.56 102.49 429.83 101.7 429.74 95.18 429.44 87.5 427.77 86.14 427.31 84.21 426.4 76.9 424.99 74.83 424.85 74.12 425.18 72.96 425.97 72.5 426.51 71.82 427.16 71.48 427.65 70.11 428.97 69.43 429.67 68.16 430.38 57.88 433.53 56.12 434.18 55.1 434.8 52.2 437.77 51.54 438.22 50.13 439.01 49.41 439.24 47.72 439.37 38.75 439.75 22.46 437.88"/>
  <line class="cls-2" x1="411.73" y1="454.52" x2="412.08" y2="454.43"/>
  <polyline class="cls-1" points="412.08 454.43 413.6 460.5 417.64 462.75 429.35 459.12 432.65 460.31 435.36 462.27 437.6 463.23 439.23 463.31 440.51 463.19 441.46 462.99 442.78 462.71 444.13 462.15 445.2 461.79 446.24 461.51 447.4 461.19 448.59 461.15 449.31 461.27 449.55 461.33 450.71 460.38 451.7 458.94 452.49 458.28 453.25 458.28 453.93 458.48 454.61 458.88 455.21 459.4 456.48 460.4 457.04 461.35 457.4 461.95 457.88 462.67 458.87 463.31 460.27 463.82 460.9 463.98 461.62 464.42 462.54 464.94 463.57 465.31 465.04 465.56 465.78 465.52 467.74 465.86 475.28 466.69 477.35 466.77 479.85 466.73 481.49 466.41 483.02 465.9 483.79 465.39 484.49 464.7 485.2 463.71 487.34 459.53 487.88 458.54 488.38 457.74 490.64 455.21 490.99 454.47 491.46 453.22 491.8 452.57 492 451.95 492.93 449.62 493.01 449.07 493.57 448.23 495.69 445.76 496.14 445.15 496.54 444.78 497.05 443.82 497.84 442.74 498.8 440.84 498.99 438.73 499.47 436.83 500.14 435.5 500.76 434.62 502.04 433.71 504.53 433.02"/>
  <polyline class="cls-1" points="486.89 426.99 493.11 427.32 496.37 427.04 497.65 426.63 498.89 426.29 500.11 426 503.23 425.14 503.83 425.03 504.93 424.82 513.41 425.39 515 425.64 515.85 425.98 516.5 426.12 516.9 426.32 517.58 426.46 521.59 427.84 523.06 428.25 525.5 429.04 526.78 429.29 528.6 429.91 530.31 430.63 530.62 430.74"/>
  <polyline class="cls-1" points="500.13 431.9 499.7 431.62 499.11 430.8 498.19 428.62 497.65 426.63 497.1 424.9 496.65 423.58 495.44 419.97 495.07 419.23 493.27 414.23 492.52 411.44 491.64 409.4 490.67 407.97 489.58 405.98 489.12 404.08 488.24 402.21 487.19 400.97 485.45 399.87 484.8 399.62 479.4 396.63 478.75 396.35 476.9 395.93 474.41 395.17 473.95 394.91 472.3 393.55 471.76 392.96 469.63 391.1 468.38 390.42 467.38 390.17 465.06 390.37 463.11 390.66 460.44 390.9 459.48 390.85 456.64 390.63 450.39 389.8 449.18 389.37 442.67 385.97 441.28 385 437.32 378.75 436.78 377.82 432.36 371.02 431.16 369.15 430.13 367.72 429 366.61 427.97 365.79 423.91 364.19 419.96 362.52 418.06 361.15 417.52 360.24 417.06 359.13 416.97 357.92 415.81 350.18 415.41 349.1 414.62 347.99 414.19 347.57 413.6 347.23 413.02 347.03 412.37 346.93 411.86 346.75 409.42 346.26 407.6 345.72 406.01 344.62 405.16 343.8 404.73 343.46 402.34 340.91 399.64 338.83 398.39 338.06 391.26 333.67 390.06 332.7 389.06 331.4 379.1 319.38 377.08 317.15 375.95 316.47 375.35 316.3 374.11 316.22 373.48 316.2 370.5 316.63 367.07 316.98"/>
  <polyline class="cls-1" points="522.32 482.77 527.11 481.42 528.02 480.76 528.67 480 529.72 479.12 533.85 476.18 545 468.68 546.07 467.83 546.38 467.38 546.86 465.62 548.9 454.47 549.23 453.61 549.89 453.01 550.59 452.64"/>
  <polyline class="cls-1" points="549.88 415.8 549.74 415.47 549.48 415.15 549.11 414.99 547.98 414.91 547.61 414.68 547.3 414.37 547.07 413.6 546.95 412.32 547.48 409.29 547.16 407.65 546.96 406.23 546.9 405.15 547.06 404.46 547.1 404.33 547.61 404.02 548.2 403.9 549.64 404.22 551.72 404.68 556.74 405.86 557.37 406.27 558.08 407.42 558.48 408.43"/>
  <line class="cls-2" x1="575.64" y1="419.79" x2="576.36" y2="420.26"/>
  <polyline class="cls-1" points="512.39 325.76 512.9 325.17 513.89 324.22 514.63 323.85 515.5 323.74 518.48 324.24 519.11 324.44 520.89 324.69 521.33 324.69 523.13 324.71 524.47 324.5 524.69 324.5 525.57 324.5 527.3 324.1 528.29 323.55 530.02 322.07 531.77 320.26 533.16 318.88 534.76 316.65 535.36 315.94 536.29 315.33 537.26 315.1 538.05 315.1 539.24 315.67 539.73 316.24 541.26 318.24 541.52 318.78 541.61 319.35 541.42 320.71 540.79 322.27 539.19 324.72"/>
  <polyline class="cls-1" points="569.1 421.39 570.57 419.31 570.94 418.37 570.93 417.33 570.59 415.77 570.44 415.06 570.21 414.04 568.81 411.34 563.54 403.09 563.17 401.84 562.87 396.49 562.98 395.58 563.62 394.32 564.5 393.58 566.37 392.49 566.6 392.27 567.14 391.98 569.43 390.34 571.35 388.8 573.05 387.59 576.36 385.37 577.83 384.83 581.95 384.23 587.96 383.64 602.47 382.06 604.17 381.57 608.25 379.49 610.43 377.67 611.34 376.84 612.04 376.3 613.65 374.96 614.5 374 614.78 373.34 615.12 371.89 615.09 370.96 615.16 365.01 615.18 363.35 615.08 361.74 614.65 358.23 613.9 354.43 613.58 352.64 613.52 350.38 613.88 349.07 614.67 347.31 615.35 346.2 616.31 345.18 617.5 344.57 619.63 343.98 620.28 343.91 629.04 345.08 647.12 348.09 648.12 348 649.82 347.52 652.92 346.34 657.33 344.29 658.01 344.05 658.32 344.1 658.78 344.41 659.09 344.84 660.52 349.07 660.82 350.12 661.3 350.66 662.1 351.22 664.2 351.68 665 351.7"/>
  <polyline class="cls-1" points="755.75 782.85 752.75 779.79 746.51 773.83 741.21 770.55 737.5 768.77 734.74 767.75 731.13 766.59 721.71 763.18 719.8 762.32 717.95 761.31 715.61 759.7 714.59 759.24 713.48 759.14 712.54 759.18 703.68 760.76 696.25 761.37 690.64 761.72 688.14 761.4 687.66 761.22 687.2 760.82 686.14 759.07 685.7 758.08"/>
  <polyline class="cls-1" points="736.94 -70.3 733.37 -66.73 727.13 -62.13 717.94 -53.26 713.34 -49.65 707.43 -45.05 699.54 -41.76 688.7 -37.17 683.78 -34.87 678.85 -30.6 675.56 -27.64 670.97 -22.06 664.72 -16.14 655.53 -6.62 650.6 -3.01 645.02 2.58 641.4 7.17 637.13 13.09 632.54 18.34 631.88 20.97"/>
  <polyline class="cls-1" points="484.07 257.87 484.39 258.81 485.28 262.88 487 268.92 487.2 270.36 486.9 272.55 486.56 273.83 486 276.98 485.77 277.54 485.07 278.74 484.45 279.48 484.22 279.94 483.03 282.2 482.57 284.04 482.72 285.43 483.05 286.98 482.84 290.94 482.99 293.86 483.45 296.48 483.3 300.17 483.15 302.32 484.38 305.55 485.46 314.32 485.15 315.71 485.79 318.01 486.61 319.6 487.37 321.08 487.88 322.31 488.25 323.65 488.96 324.83 489.37 325.7 490.21 326.06 490.47 326.14 490.92 326.74 495.67 340.05 495.96 340.85 497.13 343 498.12 344.36 498.61 345.24 498.98 345.85 501.35 349.87 502.14 350.9 502.89 352.23 503.06 352.74 503.19 354.93"/>
  <path class="cls-1" d="M479,156.38l-.23-.14-.43-1.36-.6-.79-1.25-.79-3.77-1.72-1.45-.43H467l-1.53.07-16.73.56-15.88.75h-1.08l-3.37-.61-28.72-5.07-5.56-1.14-8.51-1.4L384,144.1l-1.59-.2h-1.5l-3.23.54h-2l-1.64-.31-1.76-.27-1.14-.15h-5.31l-3.26-.87h-2.84l-3.12-.11-9.15-.65a8.78,8.78,0,0,1-2.53-1.59"/>
  <polyline class="cls-1" points="433.06 156.4 427.51 154.74 423.41 155.91 418.74 157.46 416.4 158.05 415.03 158.04 414.38 158.1 412.88 157.79 411.17 157.01 403.44 153.31 390.41 146.83 386.57 145.09 385.64 144.35"/>
  <polyline class="cls-1" points="479.39 53.48 470.61 43.24 470.07 42.73 468.79 41.41 467.4 40.13 463.82 36.77 463.36 36.2 462.56 35.33 460.43 32.42 458.66 30.24 458.12 29.3 457.75 28.34 457.2 26.52 457 24.45 456.51 24.11 456.2 23.33 456.08 22.98 454.4 20.06 453.92 19.44 452.64 18.17 451.81 17.27 451.45 16.75 451.05 16.38 449.74 14.29 448.96 12.76 448.45 10.98 447.88 9.45 446.51 5.85 443.69 -1.02"/>
  <polyline class="cls-1" points="502.46 44.38 503.37 43.83 504.11 43.26 504.82 42.86 505.58 42.74 506.29 42.77 507.08 42.91 508.73 43.58 510.21 44.41 515.78 48.55 527.04 56.9 530.75 60.61 533.54 64.09 534.7 68.27 534.93 71.52 535.39 73.61 537.48 75.93 540.73 79.17 546.54 84.05 552.33 89.62 555.81 91.71 559.06 93.1 560.69 95.19 562.54 100.06 566.49 106.56 569.51 111.9 571.13 113.98 575.08 119.33 577.4 122.81 580.18 126.52 581.81 128.14 587.61 135.1 590.55 137.95 591.75 142.53 593.14 146.12 599.52 157.28 603.11 161.47 603.31 164.46 603.51 168.05 605.5 169.84 614.27 176.82 616.06 177.41 620.65 178.01 626.63 177.81 632.41 179.21 639.59 183.39 651.74 189.77 662.11 196.95 669.88 203.32 681.29 214.96 681.67 215.46 682.35 216.47"/>
  <polyline class="cls-1" points="682.45 214.93 685.58 212.29 686.72 210.66 687.47 208.78 687.82 206.31 688.09 205.01 688.59 199.85 688.25 197.63 688.1 196.16 686.09 190.36 685.76 188.84 685.67 184.64 686.12 180.44 686.3 179.32 687.23 177.9 688.6 175.67 689.12 174.19 689.93 172.04 690.22 170.66 690.61 168.85 691.49 165.63 693.14 157.31 693.61 155.4 693.95 152.66 693.89 151.66 693.39 150.25 692.41 148.67 689.72 145.49 687.77 143.23 687.17 142.44 684.56 139.94 680.21 135.16 677.75 132.75 673.68 128.26 672.31 127.03 672.02 126.61 671.62 126.1 669.4 121.45 663.1 104.32 662.01 102.59 660.06 97.45 659.19 95.43 658.47 93.77 652.32 86.39 646.9 81.84 643.51 77.61 642.15 70.76 639.29 63.73 635.79 54.15 634.78 51.15 634.47 50.15 634.31 46.48 634.47 39.72 632.03 28.82 631.92 21.25 631.88 20.97 631.86 20.94 631.42 18.39 630.24 15.71 627.61 12.76 624.66 10.79 621.7 9.8 618.74 7.83 618.08 7.5 616.76 6.24 616.55 5.75 613.99 2.16 611.08 -1.43 608.51 -4 606.12 -6.56 601.5 -9.13 599.11 -11.52 596.38 -14.43 592.45 -15.97 589.03 -17.16 583.56 -18.87 582.36 -19.55 577.57 -21.95 574.67 -23.32 572.79 -24.86 571.09 -26.79 567.84 -31"/>
  <polyline class="cls-1" points="730.99 299.93 731.78 299.73 733.08 299.52 734.48 299.08 736.1 298.76 736.64 299.08 736.97 299.73 737.94 300.38 739.24 300.92 740.21 300.92 741.07 300.49 741.72 300.27 746.36 298.65 749.17 297.46 750.79 296.92 752.41 296.92 753.82 296.49 755 295.95 755.87 295.41 756.74 294.98 757.6 294.76 758.46 294.76"/>
  <polyline class="cls-1" points="725.77 264.87 720.18 267.04 717.58 268.4 715.24 269.67 713.83 270.61 712.78 270.8 711.85 270.58 707.54 268.57 698.15 265.08 696.93 264.52 694.36 263.15 693.02 262.77 692.37 262.32 691.97 262.18 686.57 257.44 684.83 256.17 684.26 256.01 677.34 253.91 671.4 252.35 669.3 251.92 663.73 249.9 655.97 248.46 654.03 247.85 643.49 245.06 640.33 244.34 638.23 243.85 636.27 243.53 635.99 243.45 633.15 243.22 632.32 243.16 631.67 243.06 628.58 241.25 627.87 240.15 627.44 239.66 627.1 238.82 625.1 233.18 624.9 232.38 624.09 225.35 624.11 224.19 623.76 222.86 623.42 221.95 622.65 220.68 620.09 218.39 612.62 214.15 611.63 213.73 606.74 212.27 604.3 211.83 602.46 211.72 601.75 211.84 599.28 211.9 594.68 211.43 593.8 211.18 574.49 208.36 563.83 208.36 554.05 208.18 543.75 208.72 538.77 208.72 535.22 208.54 527.22 207.12 508.74 202.14 502.7 201.97 497.73 200.54 490.79 196.28 469.12 182.06 452.83 170.91 437.83 161.16 433.06 156.4 432.22 154.25 431.76 152.55 432.39 151.44 432.85 150.54 434.3 146.37 435.25 141.6 438.38 132.98 438.77 119.27 438.77 108.3 443.87 102.81 450.53 100.07 452.49 95.36 454.45 85.57 456.8 79.69 460.72 71.85 464.64 68.72 467.82 66.59 469.29 65.4 477.04 57.97 478.42 56.33 478.93 55.16 479.1 54.73"/>
  <polyline class="cls-1" points="730.99 299.93 729.91 299.86 729 299.44 726.74 297.33 726.31 296.71 724.45 294.15 723.79 293.27 722.98 290.72"/>
  <polyline class="cls-1" points="563.94 303.65 564.1 303.28 564.05 302.79 564.6 299.3 564.97 298.29 565.05 297.72 565.3 297.79 565.55 296.77 566.85 294.06 567.56 292.87 568.18 291.42 568.65 289.44 568.82 287.74 569.4 283.51 569.53 280.54 569.7 279.59 569.92 278.97 570.29 278.32 574.15 270.13 574.8 268.87 575.14 268.18 577.4 263.29 580.44 257.21 580.84 256.51 581.4 255.86 583.22 254.23 585.34 252.95 586.1 252.64 587.91 252.18 588.76 251.87 591.29 251.8 594.04 251.99 609.98 253.78 611.77 253.69 613.36 253.35 615.32 252.32 616.75 251.46 625.19 247.18 627.66 246.67 628.59 246.84 631.04 245.81 632.12 245.27 632.88 245.03 634.69 244.11 635.79 243.79 636.27 243.53 640.73 241.42 643.02 240.26 643.47 239.86 645.52 237.86 648.64 234.4 650.02 233.2 657.43 227.97 658.73 226.91 659.69 226.39 662.91 224.97 672 223.84 673.68 223.71 674.47 223.57 676.53 222.52 677.57 221.57 679.84 217.88 680.76 216.5 682.45 214.93 682.35 216.47 682.87 217.16 686.53 220.97 690.16 224.31 691.42 225.83 692.31 226.99 694.26 229.26 695.01 230.7 695.3 231.46 695.54 232.54 695.27 234.3 695.02 235.09 694.75 236.12 692.8 243.4 691.92 247.01 691.59 248.54 691.49 249.19 692 252.74 692.01 253.98 692.02 255.24 692.03 256.17 691.98 257.28 692.06 259.8 692.24 260.73 692.82 261.92 694.36 263.15 696.93 264.52 695.76 264.25 695.14 264.39 694.29 265.11 693.7 266.03 692.69 267.11 691.93 267.66 690.33 268.32 683.96 270.08 680.76 271.07 673.74 273.01 669.81 274.17 667.09 274.91 664.94 275.25 655.93 275.8 652.17 275.93 636.35 276.71 631.12 276.93 624.77 277.6 622.43 277.71 620.1 277.93 617.98 278.27 615.42 278.6 613.52 278.94 608.73 279.71 603.28 281.16 601.49 281.5 593.81 283.61 588.68 284.06 584.56 284.84 581.11 286.06 577.99 286.95 574.87 288.18 572.09 288.96 569.26 290.71 568.73 291.19 568.42 291.57 567.93 292"/>
  <polyline class="cls-1" points="743.25 160.65 744.89 157.75 747.25 155.65 750.15 154.6 755.41 154.33 759.62 153.54 762.82 152.63 763.3 152.49 765.41 153.02 769.36 153.28 771.99 153.28 774.09 153.02 779.09 156.18 781.99 158.54 785.67 158.28 789.35 156.18 792.25 154.6 794.35 152.23 797.09 151.13 798.3 150.65 801.98 147.49 805.66 145.65 809.88 145.39 813.82 145.65 815.14 144.6 820.14 140.91 824.35 137.49 828.29 134.07"/>
  <polyline class="cls-3" points="-93.7 652.66 -93.11 654.59 -92.69 655.9 -91.88 658.28 -91.54 659.52 -90.33 662.91 -89.85 663.84 -87.25 667.34 -85.87 668.89 -85.11 669.96 -83.21 672.22 -79.28 677.68 -75.03 683.73 -74.29 684.3 -73.92 684.52 -73.27 684.75 -71.57 684.76 -70.43 684.4 -69.86 683.97 -69.07 683.52 -67.68 682.7 -66.06 682.25 -64.36 682.29 -63.34 682.61 -62.66 683.06 -56.38 688.34 -49.16 692.85 -45.45 694.98 -44.49 695.46 -42.39 696.07 -36.13 697.31 -34.55 697.71 -33.5 697.8 -30.77 697.46 -25.02 696.18 -23.06 695.79 -21.84 695.65 -18.63 694.27 -17.64 693.93 -16.3 693.84 -15.23 693.9 -13.13 694.46 -12.79 694.65 -10.24 695.4 -8.46 696.77 -7.5 698.15 -6.54 700.02 -5.72 701.33 -5.12 701.99 -3 703.69 7.55 711.35 9.84 713.31 14.17 717.13 17.87 719.75 20.28 721.06 25.85 726.18 27.41 727.95 30.85 732.23 33.45 735.61 34.98 737.41 35.43 738 36.45 739.65 37.69 741.16 38.26 742.03 38.59 743.05 38.67 744.22 37.98 749.4 37.49 752.19 36.94 756.29 37.16 758.11 37.75 761.35 37.94 762.45 38.75 766.76 39.67 771.44 39.84 771.98 40.29 772.87 42.41 776.15 42.95 777.29 44.24 781.7 44.26 784.11 44.06 784.61 43.26 785.91 42.15 787.16 37.72 791.34 36.92 792.25 36.38 793.18 35.92 794.37 35.83 796.3 35.97 798.14 37.65 803.62 40.02 810.6 40.47 811.57 42.08 813.72 44.88 816.32 48.16 819.27 49.23 820.75 49.71 821.77 50.49 824.53 51.34 825.43 53.13 826.83 53.55 827.34 54.11 828.42 55.21 832.05 56.22 834.72 62.79 848.46 64.25 851.61 64.85 852.98 65.46 854.77 65.72 856.05 65.91 859.39 66.27 860.52 70.11 867.88 70.9 869.19 72.03 870.58 74.43 872.57 75.67 873.17 79.04 875.19 80.8 876.25 83.94 878.98 85.24 879.72 87.2 880.35 88.39 880.89 91.5 882.77 92.29 883.48 93.25 883.91 94.44 884.62 95.15 885.11 97.44 886.45 98.66 887.33 101.69 890.03 103.95 891.74 105.56 892.67 106.67 893.5 107.23 894.01"/>
  <polyline class="cls-3" points="240.37 896.39 240.78 894.19 241.33 890.87 242.02 886.04 241.88 881.08 241.33 876.38 240.5 871.9 239.68 868.73 239.68 864.86 239.68 855.62 239.68 852.58 241.75 849.54 248.09 841.4 250.16 838.78 250.85 836.57 250.44 835.75 251.41 832.57 252.88 827.79"/>
  <polyline class="cls-3" points="258.52 823.51 247.94 831.53 244.5 834.48 237.13 840.81 235.8 841.95 233.73 843.52 230.11 845.68 229.03 846.14 226.94 846.76 225.92 846.87 224.78 847.09 222.43 847.1 217.32 846.29 212.5 845.68 211.9 845.74 210.54 846.08 208.76 846.99 206.75 848.58 181.33 873.11 176.32 876.69 175.25 877.35 173.8 878.43 170.66 880.54 169.84 880.88 160.22 887.47 158.63 888.56 147.78 895.64 144.08 897.75 142.92 898.26 141.9 898.85 139.97 899.64 138.32 900.04 136.99 900.03 136.65 900.03 136.28 899.88 135.31 899.68 132.23 898.29 131.44 897.81 127.81 896.55 125.38 895.97 119.45 895.16 117.24 895.04 112.36 894.51 111 894.43 108.73 894.11 107.23 894.01 104.37 893.87 102.01 893.35 101.16 892.93 99.3 892.24 92.33 889.1 89.5 887.47 87.38 886.02 83.42 883.6 82.03 883.09 79.59 882.99 78.28 883.1 76.89 883.5 73.49 884.99 70.73 885.63 68.75 885.46 67.59 885.2 66.51 884.83 58.67 880.95 57.57 880.15 56.29 879.08 52.67 875.12 52.11 874.46 50.84 872.96 49.68 871.28 47.65 867.81 46.26 866.64 45.38 866.14 44.56 865.85 43.66 865.48 40.54 864.44 37.71 863.68 35.89 863.39 34.28 863.01 32.69 862.78 27.62 861.77 26.32 861.17 15.96 854.93 14.01 854.19 13.32 854.11 9.98 853.24 3.8 851.54 0.97 850.64 0.37 850.32 -12.85 845.07 -15.65 844.21 -22.12 843.02 -23.88 842.8 -26.68 842.53 -29.69 842.81 -30.37 843.03 -31.02 843.4 -33.1 845.13 -36.34 848.69 -38.64 851.04 -40.52 852.64 -44.98 855.58 -47.37 857.08 -50.09 858.88 -54.07 861.9 -56.26 863.71 -65.64 871.14 -69.36 873.71 -70.72 874.44 -73.14 876.02 -74.1 876.62 -75.32 877.35 -84.33 882.92 -92.56 888.16 -95.86 890.11 -102.67 894.37 -103.3 894.94 -103.75 895.5 -103.81 895.63"/>
  <polyline class="cls-3" points="-22.47 618.58 -22.79 618.94 -23.16 620.2 -23.33 622.34 -23.34 623.63 -22.78 627 -22.27 628.68 -21.43 630 -20.95 630.97 -20.3 631.74 -19.73 632.22 -18.94 632.48 -17.69 632.63 -15.62 633.18 -13.95 633.74 -13.33 634.14 -12.99 634.74 -12.68 635.76 -12.43 637.18 -11.19 638.68 -10.34 639.49 -8.81 640.42 -7.22 640.93 -5.64 641.7 -4.65 642.53 -4.31 643.13 -2.99 647.63 -1.35 650.17 -1.02 651.02 -0.12 656.09 -0.16 656.45 -0.3 657.74 -0.98 660.29 -1.04 661.32 -0.79 662.17 -0.39 662.65 0.23 663.1 0.99 663.48 2.81 663.76 4.37 663.82 7.85 664.25 9.64 665 10.37 665.42 16.42 671.88 17.5 672.97 18.82 674.69 18.99 676.17 18.85 676.85 18.59 677.39 18.45 678.21 18.78 679.37 19.49 680.28 20.28 681.1 22.2 683.92 24.04 685.74 24.52 686.28 24.86 686.99 25.53 690.27 26.24 691.39 28.44 693.6 30.45 695.63 33.13 698.07 36.7 701.57 39.07 703.85 45.58 708.51 46.34 708.99 47.28 709.74 48.1 710.22 49 710.61 52.21 711.11 55.38 711.49 56.89 711.84 57.57 712.17 60.59 714.2 62.83 715.23 63.79 715.36 66 715.23 68.62 714.44 72.28 712.76 74.78 711.37 75.57 711.14 76.34 711.15 77.11 711.52 77.81 712.35 78.18 713.06 79.16 717.23 79.41 718.17 80.03 719.15 81.75 721.17 82.06 722.31 81.89 724.52 81.94 725.4 82.25 726.54 82.67 726.94 83.27 727.3 84.23 727.59 86.84 727.57 90.72 727.59 91.38 727.98 92.22 728.75 92.65 729.54 92.87 730.28 93.01 731.67 92.98 732.86 93.37 734.2 93.85 735.19 94.59 736.24 95.69 737.09 96.91 737.58 98.24 737.44 99.49 737.1 100.48 736.31 101.33 735.38 103.64 734.11 104.37 733.89 105.59 733.88 106.42 734.17 107.06 734.75 107.77 735.65 109.72 738.78 112.63 742.96 114.95 744.94 117.33 746.6 118.79 748.62 119.39 749.18 121.73 751.11 122.42 751.85 123.03 752.71 124.05 753.85 128.38 757.94 129.31 758.54 129.99 759.3 130.61 759.6 131.78 760.33 134.77 763.52 136.93 764.15 140.78 765.1 142.37 765.16 143.33 764.76 143.9 764.17 144.58 763.23 145.13 762.16 146.53 758.5 147.32 757.51 148.2 756.86 149.51 756.53 150.73 756.99 152.79 757.27 153.9 757.08 155.24 756.6 155.89 756.01 157.59 753.97"/>
  <polyline class="cls-3" points="193.67 597.32 192.59 599.08 191.65 600.7 191.65 602.45 192.05 605.15 193.26 607.18 194.75 609.74 195.29 611.77 194.48 615.55 193.69 616.47 191.85 617.24 182.53 623.72 178.22 626.28 169.84 629.39 157.42 629.79 150.13 629.93 145.81 629.93 143.25 630.47 142.03 633.03 141.63 636.4 141.9 638.56 142.3 639.38 143.66 641.53 145.68 644.91 149.19 649.63 152.29 653.01 154.99 654.63 158.1 663.67 160.53 668.94 163.37 678.52 163.77 679.47 165.25 683.92 165.39 687.84 165.12 690.54 164.58 692.83 162.55 699.85 161.21 701.07 160.26 703.63 160.66 706.34 159.85 713.76 158.64 716.46 157.42 718.08 156.48 719.16 155.5 720.53 154.18 721.74 153.17 723.37 152.86 724.69 152.36 726.11 152.25 728.14 152.76 729.46 153.16 730.25 155.38 738 155.43 738.57 155.51 739.41 155.85 740.75 155.93 743 155.56 744.72 155.38 745.04 155.1 746.28 155.1 746.33 155.12 747.24 155.35 748.24 156.92 752.55 157.4 753.52 160.66 761.51 161.03 762.43 161.6 763.59 162.94 767.6 163.62 770.18 164.8 773.64 167.9 779.66 169.48 783.21 169.85 783.84 171.29 786.56 172.23 788.07 174.17 789.76 179.11 793.32 182.55 795.69 185.59 797.89 186.24 798.34 187.27 799.25 187.64 799.87 187.7 800.95 187.19 803.05 187.31 803.67 187.88 804.31 189.32 805.02 190.69 805.93 191.79 806.58 192.37 806.86 194.1 807.91 195.17 808.25 196.76 807.98 199.03 807.18 199.34 807.18 204.11 808.59 211.77 810.78 213.13 811.19 213.59 811.25 214.38 811.25 214.67 811.27 220.52 807.54"/>
  <polyline class="cls-3" points="409.12 580.57 406.87 583.36 406.55 583.84 405.89 584.66 404.4 586.47 401.59 588.75 397.46 591.79 395.41 593.12 392.93 593.91 386.44 595.42 384.32 595.86 382.66 597 381.83 597.97 380.35 599.84 372.74 610.95 371.68 612.66 367.7 618.26 366.51 619.54 361.59 624.35 359.73 625.91 355.59 628.38 352.84 630.86 352.14 631.93 350.98 637.92 350.27 639.43 347.61 642.75 346.43 644.9 342.25 654.58 340.14 658.7 339.58 659.75 339.18 660.77 337.78 662.8 333.4 669.24 332.81 670.3 329.26 674.77 327.88 676.75 327.15 678.01 322.3 684.72 320.86 687.23 315.41 694.93 313.69 697.04 306.08 704.97 303.96 706.87 296.32 712.12 294.79 713.08 293.04 714.34 291.84 715.05 285.13 721.08 275 732.17 259 741.56 236.92 745.98 233.6 746.53 224.22 749.84 222.01 752.05 190.25 798.69 187.32 803.65 174.78 823.9 171.89 828.46 169.82 834.25 168.58 836.73 167.92 839.93 167.92 843.37 168.1 847.88 167.2 861.99 164.86 871.07 164.44 879.76 160.06 893.06 158.62 898.82"/>
  <polyline class="cls-3" points="243.98 576.22 243.93 577.52 244.25 579.4 245.49 594.62 245.72 596.8 245.84 597.28 246.05 599.07 246.78 608.91 247.64 621.33 247.75 622.23 248.24 630.28 248.56 633.76 249.24 644.32 249.57 649.73 249.46 651.06 248.79 653.62 248.11 655.29 244.53 661.24 237.7 672.43 234.28 678.06 232.85 680.13 228.44 685.44 220.95 694.2 220.27 695 218.8 696.41 217.98 696.96 217.04 697.36 215.21 697.81 213.7 697.82 212.17 698.03 210.07 698.42 207.92 699.29 206.81 699.91 205.32 700.74 203.57 702.05 201.59 703.99 200.15 705.86 199.27 707.36 197.14 710.69 195.18 713.76 191.99 718.53 190.21 721.4 189.08 722.85 188.43 723.47 184.41 727.08 182.35 728.82 181.3 729.73 180.99 729.93 180.37 730.27 179.75 730.56 178.22 731.08 169.86 733.6 169.65 733.62 168.35 733.92 167.61 734.23 166.5 734.55 164.29 735.3 162.61 736.2 161.79 736.85 160.48 738.35 159.71 739.6 157.86 742.54 155.1 746.33"/>
  <polyline class="cls-3" points="245.15 575.56 248.21 575.01 249.49 575.32 250.79 576 253.66 577.89 254.46 578.34 264.91 585.96 266.5 586.84 273.41 589.91 275.45 590.83 279.14 593.21 285.28 597.73 285.91 598.38 287.11 599.76 288.08 601.52 288.5 602.59 288.73 603.79 288.74 604.84 288.85 605.32 288.79 611.38 288.84 612.04 289.44 613.88 292.18 618.69 292.58 619.57 293.25 623.14 293.5 624.73 294.16 626.85 297.11 634.2 297.85 635.89 298.88 638.26 299.5 639.45 300.48 641.04 306.31 649.89 307.65 651.2 311.63 654.16 313.08 655.72 314.17 657.19 318.44 663.48 319.12 664.35 322.62 667.43 323.73 668.53 324.78 669.36 325.74 670.2 330.18 674.05 331.35 675.15 332.11 675.66 333.51 676.33 336.2 677.2 337.34 677.37 338.53 677.73 339.67 678.38 340.83 679.32 341.6 680.3 347.13 688.77 348.01 689.93 350.71 692.76 358.65 700.56 360.27 702 369.33 708.01 376.92 712.81 378.4 713.94 379.54 714.88 382.18 717.65 386.31 723.53 388.64 727.12 390.1 729.36 390.87 731.49 391.01 732.28 391.5 733.95 391.64 734.55 393.06 739.09"/>
  <polyline class="cls-3" points="132.39 511.67 130.79 510.08 128.72 507.37 128.72 506.09 128.88 499.71 129.04 494.61 128.72 493.34 128.4 492.54 127.92 491.9 126.81 490.79"/>
  <polyline class="cls-3" points="263.31 518.57 266.29 525.08 266.63 525.53 267.31 526.12 269.3 526.94 270.46 527.36 271.2 527.81 271.77 528.41 272.45 529.9 273.03 530.84 274.28 532.14 275.02 532.93 278.77 536.67 280.19 537.94 280.74 538.27 281.87 538.95 283.83 539.77 284.96 540.39 286.5 541.52 287.38 542.42 289.21 545.82 290.66 547.69 291.26 548.17 293.19 549.15 294.27 549.63 294.63 549.95 295.38 550.54 296.8 551.73 299.64 554.92 302.86 558.8 305.76 561.91 306.19 562.59 307.16 563.54 307.84 564.25 308.75 564.74"/>
  <polyline class="cls-3" points="241.94 576.71 242.28 575.97 242.4 574.89 242.28 574.02 240.37 569.31 238.59 565.92 237.88 564.58 237.34 563.71 236.4 562.79 232.99 560.74 232.11 560.23 230.55 559.33 229.38 558.48 228.3 557.29 227.02 555.49 226.25 553.81 224.28 549.65 223.48 548.3 222.54 547.39 220.92 546.4 218.79 545.44 217.92 545.28 216.72 544.97 214.6 544.97 212.39 545.18 211.48 545.27 209.84 545.44 208.75 545.45 201.98 546.09 200.31 546.41 196.29 547.87 193 548.41 190.79 548.57 186.31 548.63 183.67 548.99 176.28 550.25 169.87 550.9 169.23 550.92 168.52 551.09 166.87 551.22 166.19 551.16 165 550.73 162.82 549.68 161.92 548.99 161.21 548.69 151.27 542.78 149.32 541.59 148.41 540.82 147.62 539.88 146.32 537.41 145.56 535.37 144.58 532.1 142.64 526.23 141.48 523.7 140.78 522.54 138.32 518.11 135.61 513.82 134.91 513.09 134.22 512.57 132.76 511.63 132.13 511.48 131.49 511.41 130.85 511.34 130.23 511.53 129.04 512.35 125.8 515.44 123.55 517.84 119.51 522.68 117.61 524.68 116.53 525.59 115.28 526.38 111.33 528.75 110.42 529.01 109.94 529.06 109.45 529.25 107.95 529.57 107.3 529.62 105.74 529.92 102.95 530.28 100.86 530.2 99.81 529.8 98.71 529.21 97.04 527.92 94.21 526.01 92.28 525.64 86.47 525.65 84.45 526.04 82.32 526.97 81.42 527.51 78.01 529.09 75.25 530.24 74.01 530.55 72.7 530.6 65.33 530.22 64.19 530.13 63.57 530.16 62.72 530.04 56.8 529.76 54.39 529.98 51.63 530.04 50.64 529.74 48.61 528.76 47.27 528.24 40.9 526.09 40.16 525.66 39.66 525.04 39.26 524.42 39.03 523.71 38.95 523 39.19 519.74 40.4 512.11 40.6 511.2 40.6 510.75 41.72 504.26 42.22 500.46 43.16 496.16 43.2 494.71 43.15 493.12 43.09 492.07 44.15 488.9 44.47 487.12 44.55 485.92 44.67 484.65 44.7 484.11 44.57 481.67 43.95 478.72 43.31 474.41 42.75 472.05 41.48 468.56 40.97 467.62 39.96 464.78 39.97 463.76 39.8 462.41 39.43 460.84 39.01 459.87 38.22 458.49 37.2 456.3 36.36 455.05 35.37 453.29 34.24 451.56 33.19 450.31 30.14 447.66 25.16 443.51 24.31 442.43 23.61 441.32 22.71 438.76 22.46 437.9 22.46 437.88 21.92 435.99 21.42 433.29 21.54 430.94 22.26 427.2 22.77 425.75 23.23 424 25.03 418.1 25.86 416.68 27.36 414.65 28.33 412.44 28.51 410.96 28.48 409.95 28.07 407.6 27.14 405.01 26.29 403.56 24 400.47 23.04 399.69 22.3 398.47 22.02 397.68 21.94 396.37 21.66 395.24 21.16 393.82 20.59 392.72 19.49 391.43 17.99 390.6 17.14 390.35 15.1 390.01 14.24 390.09 13.39 390.52 10.98 392.26 10.44 392.6 9.07 393.08 3.49 394.09 1.79 394.56 1.22 395.27 -1.18 396.72 -1.54 396.96 -1.85 397.02 -2.67 397.18 -3 397.53"/>
  <polyline class="cls-3" points="211.51 348.32 210.92 349.12 210.3 350.14 209.51 352.76 208.84 354.82 208.73 355.97 209.22 359.31 210.4 362.49 210.94 364.49 211.46 365.74 211.71 367.27 211.81 368.63 212.06 370.61 212.74 376.42 212.6 378.86 211.99 381.39 211.9 381.62 211.08 382.27 208.59 383.64 206.88 385.13 205 386.72 202.39 388.02 200.8 389.32 198.63 391.35 196.17 393.38 192.55 395.69 189.08 398.01 185.02 400.47 180.39 402.5 174.89 403.8 167.37 405.54 163.89 406.4 162.16 407.85 162.01 408.87 161.57 410.31 160.27 411.76 159.69 413.79 158.97 415.81 156.51 418.56 154.63 420.59 150 422.76 145.67 424.77 144.64 425.08 134.65 428.11 134.8 428.13 131.31 428.82 127.84 429.27 123.45 430.47 121.2 431.29 118 432.16 115.93 432.58 111.61 433.59 110.71 433.95 110.19 434.49 109.94 435 108.93 438.8 108.56 439.66 107.48 441.52 105.61 443.95 104.89 445.46 104.75 446.36 104.97 447.3 105.45 448.35 106.63 450.26 107.42 452.06 107.48 452.89 107.39 453.4 106.22 456.21 104.79 459.14 104.42 459.88 103.74 462.01 103.71 462.97 103.82 463.96 104.33 464.84 105.26 465.84 105.91 466.36 107.33 467.16 108.12 467.38 109.31 467.56 110.64 467.56 114.22 467.66 115.07 467.94 115.97 468.6 116.45 469.22 116.91 470.16 117.24 471.1 117.18 472.96 116.49 474.69 115.56 476.08 115.01 477.38 114.95 477.98 115.17 480.08 115.77 482.43 116.33 483.36 117.12 484.22 119.19 485.78"/>
  <polyline class="cls-3" points="-22.17 91.87 -20.98 92.53 -19.02 93.35 -15 95.38 -14.35 95.67 -12.99 96.71 -10.08 100.25 -8.49 101.66 -6.29 102.92 -2.77 104.32 0.23 105.57 6.83 107.68 9.09 108.58 11.5 109.38 13.03 110.17 15.38 111.28 16.82 111.89 19.29 113.48 20.02 113.74 22.66 115.22 23.37 115.79 23.51 115.99 24.78 117.64 25.34 118.61 25.99 120.08 28.5 124.17 33.33 132.78 34.26 134.31 35.87 137.55 36.48 139.62 38.33 148.5 38.5 149.72 38.83 150.74 39 151.76 39.23 152.38 40.89 154.32 42.96 155.57 46.13 157.4 47.26 158.05 48 158.79 49.07 160.61 50.16 164.19 51.23 167.19 52.95 170.66 53.84 175.37 54.01 177.35 54.03 178.57 54.82 180.79 56.24 182.29 59.18 185.7 65.93 193.26 68.95 196.7 70.79 198.58 73.28 200.69 74.53 201.94 75.71 203.64 76.05 203.99 76.78 205.21 78.31 207.59 79.18 209.32 79.61 209.76 81.41 212.82 82.32 214.64 83.22 216.19 83.7 217.33 84.77 219.35 85.25 220.51 85.64 221.12 85.76 221.7 85.38 223.73 85.38 224.41 85.69 224.82 86.6 225.34 86.96 225.51"/>
  <polyline class="cls-3" points="-3.41 382.99 -3.13 381.56 -2.46 378.01 -2.36 377.39 -1.65 375.73 -1.17 374.59 0.09 372.76 4.15 367.71 5.6 365.85 9.19 361.58 10.7 360.05 13.4 357.17 15.42 355.27 15.98 354.22 16.1 353.77 16.36 352.21 16.86 345.49 17.35 343.23 18.09 341.55 18.8 340.53 19.82 339.43 21.3 338.1 23.97 336.24 28.49 332.71 38.22 322.01 51.41 307.11 54.17 303.74 56.68 299.81 57.85 298.55 61.33 293.86 70.5 280.28 71.41 278.81 72.41 277.1 73.8 275.47 75.88 273.88 77.78 272.13 78.35 271.51 79.32 269.7 79.86 268.45 80.59 263.75 82.83 251.64 83.75 247.4 83.75 246.37 84.1 244.58 86.23 233.28 86.49 232.32 87.44 227.38 88.18 225.54 87.67 224.87 87.45 223.81 87.43 222.45 87.74 220.35 89.2 215.34 90.12 211.83 90.44 211.29 90.94 210.72 92.45 209.57 96.06 206.31 96.72 205.61 97.26 204.72 97.83 203.2 101.64 181.6 103.51 171.15 103.74 168.76 103.66 168.19 103.41 167.48 102.93 166.75 102.53 166.33 101.94 165.92 98.01 162.39 96.73 161.02 95.83 159.66 94.81 158.41 93.97 156.96 93.29 155.52 92.92 154.41 92.73 153.34 92.7 152.09 93.02 150.36 93.22 149.81 93.68 149.16 95.44 147.64 97.8 145.01 98.97 142.94 99.48 141.42 99.75 138.44 99.81 136.91 100.73 132.26 101.31 128.27 100.78 125.23 98.92 118.42 98.79 116.77 98.96 115.27 99.48 112.49 99.68 111.01 99.74 109.79 99.58 108.55 98.63 105.03 98.49 103.79 98.43 102.14 98.75 99.61 98.81 98.17 98.96 97.23 99.99 94.78 101.29 93.27 103.88 91.27 107.2 89.55 108.11 88.93 108.68 88.67 108.91 88.45 109.96 87.85 112.66 86.05 118.8 81.7 119.51 80.76 120.33 79.94 122.13 77.33 125.77 72.36 126.14 71.6 126.68 69.95 128.24 59.66 129.18 57.76 129.87 56.6 130.19 55.84 131.75 52.98 132.56 47.35"/>
  <polyline class="cls-3" points="131 226.89 131.31 226.71 134.12 226 135.59 225.43 139.54 223.53 140.65 222.98 146.64 220.04 149.2 218.69 154.9 216.1 155.75 215.76 156.81 215.47 160.13 215.15 160.49 215.01 161.77 214.87 163.53 214.59 165.09 214.22 166.45 213.44 167.73 212.45 168.05 211.99 168.99 209.42 169.73 206.08 170.63 203.16 171.25 202.47 171.98 201.93 174 201.31 176.32 200.81 179.1 199.98 180.31 199.41 181.96 198.81 183.26 198.02 183.91 197.56 185.35 196.19 186.65 194.58 196.03 184.25 198.3 183.46 199.06 183.4 199.34 183.47 200.37 183.45 205.31 184.6 205.59 184.54 206.72 184.3 213.47 181.64 214.37 181.25 219.67 179.73 225.85 178.21 226.87 178.12 227.5 178.06 230.36 177.94 231.27 177.86 233.25 177.1 240.69 172.32 241.65 171.55 243.41 169.9 245.87 167.32 248.33 164.96 252.2 160.94 252.56 160.52 256.1 156.23 258.67 153.75 259.49 152.13 260.33 149.75 260.93 148.83 261.77 148.24 264.07 146.67 265.03 145.71 266.53 144.42 269.58 141.55 270.91 140.18 276.59 134.72 283.57 126.93"/>
  <polyline class="cls-3" points="341.68 134.31 341.57 137.34 341.21 138.44 340.79 139.8 340.31 140.97 340.05 141.79 339.12 143.97 338.62 144.86 334.81 151.51 333.59 153.58 332.15 155.8 331.76 156.17 329.35 157.82 327.12 159.35 326.14 160.02 317.38 166 315.03 167.71 310.4 172.22 307.43 174.96 306.6 175.7 305.33 177.58 304.26 178.68 300.72 180.76 299.08 181.42 297.75 182.14 296.56 182.5 292.75 184.49 292.11 184.79 288.97 186.9 287.55 188.03 285.6 189.83 284.95 190.73 282.75 195.9 281.82 197.49 280.84 199.91 278.95 212.79 278.5 214.77 278.05 215.6 276.83 217.25 274.94 219.15 271.55 222.22 270.61 223.41 270.3 224.29 268.43 231.62 266.23 237.5 265.95 238.66 265.31 243.57 265.15 245.52 264.65 248.88 264.38 253.13 264.1 254.29 263.14 257.19 261.22 261.02 259.95 263.1 258.21 265.71 256.09 270 254.99 272.07 252.79 276.93 251.92 280.45 250.56 287.15 249.91 289.08 247.14 293.67 245.73 296.6 244.93 298.69 244.26 301.67 243.84 304.98 244.2 309 244.93 316.38 245.65 318.87 247.76 324.82 250.04 327.84 252.18 332.49 253.44 335.35 254.52 336.9 254.92 337.42 256.48 338.43 260.55 340.69 262.11 341.73 263.36 343.25 267.87 351.94 269.55 354.72 270.24 355.91 270.78 357.04 271.07 358.78 270.94 361.18 270.46 363.88 268.32 369.98 266.54 378.87 266.37 380.5 266.47 383.23 266.5 384.42 266.56 387.46 266.18 389.56 265.27 391.63 263.56 394.69 260.31 400.35 259.8 401.09 258.93 402.74 256.54 408.62 255.13 412.81 254.49 415.37 253.91 420.11 253.19 427.79 252.66 429.47 252.04 431 250.44 435.6 247.18 444.45 245.8 447.64 244.53 450.4 243.24 453.57 242.9 455.23 241.65 463.65 241.12 466.54 240.56 468.16 236.93 477.62 236.59 479.18 234.93 491.4 234.06 494.35 233.36 496.54 233.14 497.88 232.89 500.99 232.55 509.22 232.38 510.41 231.94 512.03 227.99 519.53 222.32 529.41 218.65 535.63 218.37 536.97 218.43 538.59 219.01 542.58 219.43 545.73"/>
  <path class="cls-3" d="M184.34-296.43l24.74,31.49,6.75,18,3.37,16.87v21.36l-7.87,21.37-18,38.24v29.23L206.83-76,219.2-47.91l7.88,19.12L232.7-.68l-1.13,13.5-2.25,14.62.76,23.28H230l1.86,3.68,1.43,1.69,1.93,1.44,1.42.62,2.87,1.3,1.19,1.13.66.76,1.48,2.24.6,1.64.2,1-.11,1.92-.52,2.7-.48,1.42-.65,1.3-1.41,3.78-.12,1.38v.15l.09.69.18,1.12.88,3.12.92,2,4.66,2.71,2.75,1.89,4.89,3.82L256,95.71l1.4,2.49,1.37,3,.49,1.74.86,5.47.35,1.16.45,1.13.46.79,2.62,3.08,2.07,2.1,1.34,1,12.18,6.77,2.22,1.4,1.74,1,1.64.88.26.28,2.16,1.1.74.22,2.23.08,1.79-.23,2.5-.15,2.38-.17,7.14-.89,4.59-.8,4.17-.92,1.42-.26.4-.08,9.83-2s12.91-3.14,14.76,3.77"/>
  <polyline class="cls-3" points="701.34 327.69 701.97 327.71 703.48 327.6 705.85 327.49 708.99 328.14 710.28 328.25 711.37 328.47 713.63 328.57 715.57 328.14 717.2 328.57 718.6 328.9 721.09 328.47 724.43 327.71 726.05 326.95 728.32 325.98 729.94 324.58 731.13 322.96 732.21 321.66 733.51 320.9 735.13 320.58 736.1 319.82 737.61 319.82 738.69 319.28 740.42 317.88 742.15 316.04 743.66 313.77 744.85 312.26 747.01 310.43 749.06 308.92 750.36 308.16 751.44 306.11 752.2 303.94 752.52 300.49 752.63 298.22 752.63 297.68 752.41 296.92"/>
  <polyline class="cls-3" points="430.54 884.27 431.25 885.11 432.68 887.17 433.59 888.31 438.58 895.52 443.07 902.18 451.08 913.52 454.64 918.54 454.98 919.29 458.35 924.16 461.51 928.43 464.56 932.96 480.57 956.14 495.56 977.33 498.6 981.77 501.68 985.92"/>
  <polyline class="cls-3" points="430.54 884.27 428.99 882.04 428.51 881.15 428.43 880.67 428.43 880.5 428.83 878.96 429.5 877.06"/>
  <polyline class="cls-3" points="644.78 878.74 642.3 877.92 640.64 878.13 638.99 879.78 618.88 891.18 613.91 893.04 600.85 894.91 597.75 895.12 595.88 894.49 592.98 892.84 592.36 889.94 589.87 883.72 588.83 879.78 585.93 875.01 576.4 874.39 571.22 874.6 568.53 872.32 564.17 869.01 561.07 867.55 559.2 869.22 552.57 871.91 547.38 873.15 546.35 875.64 546.35 875.64"/>
  <polyline class="cls-3" points="702.99 815.2 700.74 816.88 699.13 819.02 696.99 822.5 695.39 825.45 692.44 833.47 689.5 841.77 688.7 844.71 686.82 847.65 685.22 851.13 682.54 856.22 676.92 863.71 670.16 873.85 667.01 880.1 659.28 894.55 658.27 896.12 650.55 912.53"/>
  <polyline class="cls-3" points="444.97 690.06 444.72 691.79 444.7 693.36 444.99 696.27 444.96 698.06 444.88 698.69 444.13 701.32 441.62 708.05 440.61 710.15 437.92 713.76 435.86 715.99 434.59 717.1 433.14 717.72 429.2 718.59 427.71 719.04 426.85 719.3 420.28 722.98 419.89 723.31 418.64 723.94 417.17 725.11 415.7 727.08 413.47 730.26 412.06 732.13 409.86 735.23 409.03 736.34 408.47 737.16 404.15 742.08 403.27 742.97 402.4 744.08 401.83 744.67 401.52 745.15 400.7 746.2 400.36 746.66 397.85 752.54 396.05 756.85 394.89 759.07 392.64 761.97 390.12 764.55 388.73 765.75 385.92 768.13 385.54 768.45 377.47 774.63 372.69 778.53 372.04 779.16 371.56 779.78 371.14 780.58 370.58 782.26 370.41 783.39 370.47 784.58 370.42 785.91 370.99 788.07 371.37 790.28 371.32 792.01 370.98 793.5 370.25 795.16 369.4 796.07 369.06 796.55 365.3 800.16 364.4 801.27 363.35 803.57 361.77 807.46 360.11 810.05 359.07 811.5 348.98 823.38 345.9 826.97 345.22 827.85 342.05 830.1 339.98 831.1 339.1 831.41 335.99 831.98 332.7 832.5 331.08 832.91 327.91 834.16 327.15 834.48 326.18 834.9 323.92 836.81 321.94 839.29 312.93 851 312.34 851.85 311.38 853.78 310.82 856.07 310.23 860.02 309.52 867.28 309.3 869.19 309.05 871.8 308.74 873.89 307.97 881.69 308.01 884.36 308.01 885.15 308.42 890.14 309.23 893.74 310.06 896.32 310.77 898.45 316.38 913.68 317.62 919.06 318.24 925.06 318.65 938.3 318.44 943.88 317.83 946.37 315.55 949.67 314.1 951.75 310.17 958.98 307.07 962.09 300.15 971.76"/>
  <polyline class="cls-3" points="480.19 572.11 478.55 575.59 477.25 578.83 476.17 581.86 475.74 583.15 475.31 592.88 472.93 605.19 472.93 607.57 472.72 609.73 473.36 611.02 474.11 611.58 475.5 611.67 479.11 612.13 479.98 612.31 480.41 612.33 483.48 612.92 485.46 613.68 486.8 614.5 487.28 614.79 487.76 615.09 491.94 617.83 493.11 618.59 494.1 619.06 498.79 621.02 501.29 622.14 506.25 625.31"/>
  <polyline class="cls-3" points="531.85 766.79 532.4 767.04 533.76 767.98 535.42 769.81 535.96 770.95 535.98 771.11 536.27 772.82 536.69 779.66 536.91 780.81 538.05 786.8 538.8 791.85 538.81 791.92 539.29 794.31 540.16 797.68 540.64 799.55 540.72 800.49 540.96 803.16 541.02 805.88 540.86 807.27 540.57 808.72"/>
  <polyline class="cls-3" points="618.23 690.96 616.38 691.95 613.08 693.8 609.17 695.38 607.13 696.06 603.64 697.38 600.24 699.32 598.36 701.05 598.18 701.22 591.85 708.16 586.79 713.6 578.32 727.38 572.9 741.84 568.08 749.37 565.67 754.49 563.26 762.32 561.46 765.63 559.64 767.74 556.33 769.85 553.02 773.76 547.9 777.98 543.98 783.7 542.78 789.42 543.08 791.23 543.68 796.65 542.78 801.17 541.41 804.07 540.59 808.17 538.41 819.02 537.51 822.31 536.61 825.15 536.16 827.59 536 831.53 536.07 832.9 536.61 835.58 536.87 836.58 538.71 844.43 541.86 857.21 542.33 859.42 543.16 862.54 543.33 863.28 544.13 866.76 544.63 868.92 544.91 869.73 545.02 870.26 560.91 945.35 560.93 945.64"/>
  <polyline class="cls-3" points="411.56 555.16 411.57 554.72 411.98 551.14 412.32 549.73 413.11 547.76 413.53 547.22 416.38 544.06 419.58 540.4 420.3 539.65 421.7 538.2 423.03 537.18 428.46 533.39 429.25 532.5 430.21 532.14 430.81 532.02 432.17 532.11 433.7 532.67 434.08 532.92 434.11 533.38 433.38 536.16 433.13 537.67 432.89 538.48 432.87 538.54 432.22 539.53 431.94 541.13 431.72 541.6 431.61 542.29 431.95 543.25 432.15 543.63 431.96 546.29 432.13 547.45 432.62 548.32 433.27 549.29 434.16 550.82 433.96 551.5 432.86 552.07"/>
  <polyline class="cls-3" points="438.96 443.04 437.24 443.67 436.05 443.98 433.44 444.87 430.04 446.07 428.23 446.72 426.58 446.87 423.26 446.69 422.55 446.55 422.3 446.44 421.06 446.23 419.35 445.94 417.02 445.57 416.17 445.57 415.35 445.46 414.47 445.61 413.7 445.55 412.65 445.7 411.52 445.76 403.64 446.98 402.9 447.2 402.37 447.55 399.46 449.49 398.66 450.03 397.53 450.54 395.97 450.77 391.82 450.55 391.03 450.39 389.3 450.26 388.39 450.37 387.86 450.57 387.2 451 385.45 452.28 384.01 453.07 382.39 453.77 381.6 454.08 380.66 454.31 380.07 454.23 379.3 453.8 378.45 453.2 377.94 452.99 376.63 452.59 375.73 452.63 374.45 452.96 372.47 454.02 368.9 456.1 367.17 456.88 366.46 456.99 365.05 457.4 363.29 457.54 361.25 457.32 359.46 457.27 359.06 457.27 358.58 457.44 357.79 457.59 357.05 457.55 356.08 457.11 355.77 456.82 355.29 456.63 353.65 456.89 352.74 457.03 348.6 457.07 347.18 457.27 346.22 457.74 345.23 458.02 342.11 459.31 339.36 459.9 327.8 461.73 325.45 462.08 321.76 462.77 320.06 462.92 318.33 463.29 310.2 464.57 282.99 469.21 280.81 469.54 279.64 469.79 275.02 470.63 272.39 470.92 267.34 471.19 266.09 471.36 263.34 471.58 260.08 471.7 259.23 471.76 255.12 472.14 252.12 472.97 250.41 472.98 248.71 472.59 246.86 471.77 244.03 469.94 240.56 468.16 235.5 465.93 232.07 464.5 227.75 462.49 201.57 451.13 197.54 449.29 192.88 447.29 192.06 446.96 191.24 446.48 189.81 446 187.32 444.93 184.53 443.66 183.4 443.22 181.07 442.17 179.88 441.75 176.02 440 169.85 437.46 165.12 435.3 163.96 434.55 161.72 433.41 157.44 431.53 154.41 430.59 149.25 428.56 146.82 427.82 146.31 427.79 143.59 427.19 141.63 426.98 140.53 427.18 138.6 427.71 136.75 428.16 134.8 428.13 134 427.95 132.39 427.77 129.55 428.17 118.91 430.63 114.37 431.28 111.73 431.35 110.83 431.32 109.81 431.32 106.32 431 104.51 430.56 102.49 429.83 101.7 429.74 95.18 429.44 87.5 427.77 86.14 427.31 84.21 426.4 76.9 424.99 74.83 424.85 74.12 425.18 72.96 425.97 72.5 426.51 71.82 427.16 71.48 427.65 70.11 428.97 69.43 429.67 68.16 430.38 57.88 433.53 56.12 434.18 55.1 434.8 52.2 437.77 51.54 438.22 50.13 439.01 49.41 439.24 47.72 439.37 38.75 439.75 22.46 437.88"/>
  <polyline class="cls-3" points="412.08 454.43 413.6 460.5 417.64 462.75 429.35 459.12 432.65 460.31 435.36 462.27 437.6 463.23 439.23 463.31 440.51 463.19 441.46 462.99 442.78 462.71 444.13 462.15 445.2 461.79 446.24 461.51 447.4 461.19 448.59 461.15 449.31 461.27 449.55 461.33 450.71 460.38 451.7 458.94 452.49 458.28 453.25 458.28 453.93 458.48 454.61 458.88 455.21 459.4 456.48 460.4 457.04 461.35 457.4 461.95 457.88 462.67 458.87 463.31 460.27 463.82 460.9 463.98 461.62 464.42 462.54 464.94 463.57 465.31 465.04 465.56 465.78 465.52 467.74 465.86 475.28 466.69 477.35 466.77 479.85 466.73 481.49 466.41 483.02 465.9 483.79 465.39 484.49 464.7 485.2 463.71 487.34 459.53 487.88 458.54 488.38 457.74 490.64 455.21 490.99 454.47 491.46 453.22 491.8 452.57 492 451.95 492.93 449.62 493.01 449.07 493.57 448.23 495.69 445.76 496.14 445.15 496.54 444.78 497.05 443.82 497.84 442.74 498.8 440.84 498.99 438.73 499.47 436.83 500.14 435.5 500.76 434.62 502.04 433.71 504.53 433.02"/>
  <polyline class="cls-3" points="486.89 426.99 493.11 427.32 496.37 427.04 497.65 426.63 498.89 426.29 500.11 426 503.23 425.14 503.83 425.03 504.93 424.82 513.41 425.39 515 425.64 515.85 425.98 516.5 426.12 516.9 426.32 517.58 426.46 521.59 427.84 523.06 428.25 525.5 429.04 526.78 429.29 528.6 429.91 530.31 430.63 530.62 430.74"/>
  <polyline class="cls-3" points="500.13 431.9 499.7 431.62 499.11 430.8 498.19 428.62 497.65 426.63 497.1 424.9 496.65 423.58 495.44 419.97 495.07 419.23 493.27 414.23 492.52 411.44 491.64 409.4 490.67 407.97 489.58 405.98 489.12 404.08 488.24 402.21 487.19 400.97 485.45 399.87 484.8 399.62 479.4 396.63 478.75 396.35 476.9 395.93 474.41 395.17 473.95 394.91 472.3 393.55 471.76 392.96 469.63 391.1 468.38 390.42 467.38 390.17 465.06 390.37 463.11 390.66 460.44 390.9 459.48 390.85 456.64 390.63 450.39 389.8 449.18 389.37 442.67 385.97 441.28 385 437.32 378.75 436.78 377.82 432.36 371.02 431.16 369.15 430.13 367.72 429 366.61 427.97 365.79 423.91 364.19 419.96 362.52 418.06 361.15 417.52 360.24 417.06 359.13 416.97 357.92 415.81 350.18 415.41 349.1 414.62 347.99 414.19 347.57 413.6 347.23 413.02 347.03 412.37 346.93 411.86 346.75 409.42 346.26 407.6 345.72 406.01 344.62 405.16 343.8 404.73 343.46 402.34 340.91 399.64 338.83 398.39 338.06 391.26 333.67 390.06 332.7 389.06 331.4 379.1 319.38 377.08 317.15 375.95 316.47 375.35 316.3 374.11 316.22 373.48 316.2 370.5 316.63 367.07 316.98"/>
  <polyline class="cls-3" points="522.32 482.77 527.11 481.42 528.02 480.76 528.67 480 529.72 479.12 533.85 476.18 545 468.68 546.07 467.83 546.38 467.38 546.86 465.62 548.9 454.47 549.23 453.61 549.89 453.01 550.59 452.64"/>
  <polyline class="cls-3" points="549.88 415.8 549.74 415.47 549.48 415.15 549.11 414.99 547.98 414.91 547.61 414.68 547.3 414.37 547.07 413.6 546.95 412.32 547.48 409.29 547.16 407.65 546.96 406.23 546.9 405.15 547.06 404.46 547.1 404.33 547.61 404.02 548.2 403.9 549.64 404.22 551.72 404.68 556.74 405.86 557.37 406.27 558.08 407.42 558.48 408.43"/>
  <polyline class="cls-3" points="512.39 325.76 512.9 325.17 513.89 324.22 514.63 323.85 515.5 323.74 518.48 324.24 519.11 324.44 520.89 324.69 521.33 324.69 523.13 324.71 524.47 324.5 524.69 324.5 525.57 324.5 527.3 324.1 528.29 323.55 530.02 322.07 531.77 320.26 533.16 318.88 534.76 316.65 535.36 315.94 536.29 315.33 537.26 315.1 538.05 315.1 539.24 315.67 539.73 316.24 541.26 318.24 541.52 318.78 541.61 319.35 541.42 320.71 540.79 322.27 539.19 324.72"/>
  <polyline class="cls-3" points="569.1 421.39 570.57 419.31 570.94 418.37 570.93 417.33 570.59 415.77 570.44 415.06 570.21 414.04 568.81 411.34 563.54 403.09 563.17 401.84 562.87 396.49 562.98 395.58 563.62 394.32 564.5 393.58 566.37 392.49 566.6 392.27 567.14 391.98 569.43 390.34 571.35 388.8 573.05 387.59 576.36 385.37 577.83 384.83 581.95 384.23 587.96 383.64 602.47 382.06 604.17 381.57 608.25 379.49 610.43 377.67 611.34 376.84 612.04 376.3 613.65 374.96 614.5 374 614.78 373.34 615.12 371.89 615.09 370.96 615.16 365.01 615.18 363.35 615.08 361.74 614.65 358.23 613.9 354.43 613.58 352.64 613.52 350.38 613.88 349.07 614.67 347.31 615.35 346.2 616.31 345.18 617.5 344.57 619.63 343.98 620.28 343.91 629.04 345.08 647.12 348.09 648.12 348 649.82 347.52 652.92 346.34 657.33 344.29 658.01 344.05 658.32 344.1 658.78 344.41 659.09 344.84 660.52 349.07 660.82 350.12 661.3 350.66 662.1 351.22 664.2 351.68 665 351.7"/>
  <polyline class="cls-3" points="755.75 782.85 752.75 779.79 746.51 773.83 741.21 770.55 737.5 768.77 734.74 767.75 731.13 766.59 721.71 763.18 719.8 762.32 717.95 761.31 715.61 759.7 714.59 759.24 713.48 759.14 712.54 759.18 703.68 760.76 696.25 761.37 690.64 761.72 688.14 761.4 687.66 761.22 687.2 760.82 686.14 759.07 685.7 758.08"/>
  <polyline class="cls-3" points="736.94 -70.3 733.37 -66.73 727.13 -62.13 717.94 -53.26 713.34 -49.65 707.43 -45.05 699.54 -41.76 688.7 -37.17 683.78 -34.87 678.85 -30.6 675.56 -27.64 670.97 -22.06 664.72 -16.14 655.53 -6.62 650.6 -3.01 645.02 2.58 641.4 7.17 637.13 13.09 632.54 18.34 631.88 20.97"/>
  <polyline class="cls-3" points="484.07 257.87 484.39 258.81 485.28 262.88 487 268.92 487.2 270.36 486.9 272.55 486.56 273.83 486 276.98 485.77 277.54 485.07 278.74 484.45 279.48 484.22 279.94 483.03 282.2 482.57 284.04 482.72 285.43 483.05 286.98 482.84 290.94 482.99 293.86 483.45 296.48 483.3 300.17 483.15 302.32 484.38 305.55 485.46 314.32 485.15 315.71 485.79 318.01 486.61 319.6 487.37 321.08 487.88 322.31 488.25 323.65 488.96 324.83 489.37 325.7 490.21 326.06 490.47 326.14 490.92 326.74 495.67 340.05 495.96 340.85 497.13 343 498.12 344.36 498.61 345.24 498.98 345.85 501.35 349.87 502.14 350.9 502.89 352.23 503.06 352.74 503.19 354.93"/>
  <path class="cls-3" d="M479,156.38l-.23-.14-.43-1.36-.6-.79-1.25-.79-3.77-1.72-1.45-.43H467l-1.53.07-16.73.56-15.88.75h-1.08l-3.37-.61-28.72-5.07-5.56-1.14-8.51-1.4L384,144.1l-1.59-.2h-1.5l-3.23.54h-2l-1.64-.31-1.76-.27-1.14-.15h-5.31l-3.26-.87h-2.84l-3.12-.11-9.15-.65a8.78,8.78,0,0,1-2.53-1.59"/>
  <polyline class="cls-3" points="433.06 156.4 427.51 154.74 423.41 155.91 418.74 157.46 416.4 158.05 415.03 158.04 414.38 158.1 412.88 157.79 411.17 157.01 403.44 153.31 390.41 146.83 386.57 145.09 385.64 144.35"/>
  <polyline class="cls-3" points="479.39 53.48 470.61 43.24 470.07 42.73 468.79 41.41 467.4 40.13 463.82 36.77 463.36 36.2 462.56 35.33 460.43 32.42 458.66 30.24 458.12 29.3 457.75 28.34 457.2 26.52 457 24.45 456.51 24.11 456.2 23.33 456.08 22.98 454.4 20.06 453.92 19.44 452.64 18.17 451.81 17.27 451.45 16.75 451.05 16.38 449.74 14.29 448.96 12.76 448.45 10.98 447.88 9.45 446.51 5.85 443.69 -1.02"/>
  <polyline class="cls-3" points="502.46 44.38 503.37 43.83 504.11 43.26 504.82 42.86 505.58 42.74 506.29 42.77 507.08 42.91 508.73 43.58 510.21 44.41 515.78 48.55 527.04 56.9 530.75 60.61 533.54 64.09 534.7 68.27 534.93 71.52 535.39 73.61 537.48 75.93 540.73 79.17 546.54 84.05 552.33 89.62 555.81 91.71 559.06 93.1 560.69 95.19 562.54 100.06 566.49 106.56 569.51 111.9 571.13 113.98 575.08 119.33 577.4 122.81 580.18 126.52 581.81 128.14 587.61 135.1 590.55 137.95 591.75 142.53 593.14 146.12 599.52 157.28 603.11 161.47 603.31 164.46 603.51 168.05 605.5 169.84 614.27 176.82 616.06 177.41 620.65 178.01 626.63 177.81 632.41 179.21 639.59 183.39 651.74 189.77 662.11 196.95 669.88 203.32 681.29 214.96 681.67 215.46 682.35 216.47"/>
  <polyline class="cls-3" points="682.45 214.93 685.58 212.29 686.72 210.66 687.47 208.78 687.82 206.31 688.09 205.01 688.59 199.85 688.25 197.63 688.1 196.16 686.09 190.36 685.76 188.84 685.67 184.64 686.12 180.44 686.3 179.32 687.23 177.9 688.6 175.67 689.12 174.19 689.93 172.04 690.22 170.66 690.61 168.85 691.49 165.63 693.14 157.31 693.61 155.4 693.95 152.66 693.89 151.66 693.39 150.25 692.41 148.67 689.72 145.49 687.77 143.23 687.17 142.44 684.56 139.94 680.21 135.16 677.75 132.75 673.68 128.26 672.31 127.03 672.02 126.61 671.62 126.1 669.4 121.45 663.1 104.32 662.01 102.59 660.06 97.45 659.19 95.43 658.47 93.77 652.32 86.39 646.9 81.84 643.51 77.61 642.15 70.76 639.29 63.73 635.79 54.15 634.78 51.15 634.47 50.15 634.31 46.48 634.47 39.72 632.03 28.82 631.92 21.25 631.88 20.97 631.86 20.94 631.42 18.39 630.24 15.71 627.61 12.76 624.66 10.79 621.7 9.8 618.74 7.83 618.08 7.5 616.76 6.24 616.55 5.75 613.99 2.16 611.08 -1.43 608.51 -4 606.12 -6.56 601.5 -9.13 599.11 -11.52 596.38 -14.43 592.45 -15.97 589.03 -17.16 583.56 -18.87 582.36 -19.55 577.57 -21.95 574.67 -23.32 572.79 -24.86 571.09 -26.79 567.84 -31"/>
  <polyline class="cls-3" points="730.99 299.93 731.78 299.73 733.08 299.52 734.48 299.08 736.1 298.76 736.64 299.08 736.97 299.73 737.94 300.38 739.24 300.92 740.21 300.92 741.07 300.49 741.72 300.27 746.36 298.65 749.17 297.46 750.79 296.92 752.41 296.92 753.82 296.49 755 295.95 755.87 295.41 756.74 294.98 757.6 294.76 758.46 294.76"/>
  <polyline class="cls-3" points="725.77 264.87 720.18 267.04 717.58 268.4 715.24 269.67 713.83 270.61 712.78 270.8 711.85 270.58 707.54 268.57 698.15 265.08 696.93 264.52 694.36 263.15 693.02 262.77 692.37 262.32 691.97 262.18 686.57 257.44 684.83 256.17 684.26 256.01 677.34 253.91 671.4 252.35 669.3 251.92 663.73 249.9 655.97 248.46 654.03 247.85 643.49 245.06 640.33 244.34 638.23 243.85 636.27 243.53 635.99 243.45 633.15 243.22 632.32 243.16 631.67 243.06 628.58 241.25 627.87 240.15 627.44 239.66 627.1 238.82 625.1 233.18 624.9 232.38 624.09 225.35 624.11 224.19 623.76 222.86 623.42 221.95 622.65 220.68 620.09 218.39 612.62 214.15 611.63 213.73 606.74 212.27 604.3 211.83 602.46 211.72 601.75 211.84 599.28 211.9 594.68 211.43 593.8 211.18 574.49 208.36 563.83 208.36 554.05 208.18 543.75 208.72 538.77 208.72 535.22 208.54 527.22 207.12 508.74 202.14 502.7 201.97 497.73 200.54 490.79 196.28 469.12 182.06 452.83 170.91 437.83 161.16 433.06 156.4 432.22 154.25 431.76 152.55 432.39 151.44 432.85 150.54 434.3 146.37 435.25 141.6 438.38 132.98 438.77 119.27 438.77 108.3 443.87 102.81 450.53 100.07 452.49 95.36 454.45 85.57 456.8 79.69 460.72 71.85 464.64 68.72 467.82 66.59 469.29 65.4 477.04 57.97 478.42 56.33 478.93 55.16 479.1 54.73"/>
  <polyline class="cls-3" points="730.99 299.93 729.91 299.86 729 299.44 726.74 297.33 726.31 296.71 724.45 294.15 723.79 293.27 722.98 290.72"/>
  <polyline class="cls-3" points="563.94 303.65 564.1 303.28 564.05 302.79 564.6 299.3 564.97 298.29 565.05 297.72 565.3 297.79 565.55 296.77 566.85 294.06 567.56 292.87 568.18 291.42 568.65 289.44 568.82 287.74 569.4 283.51 569.53 280.54 569.7 279.59 569.92 278.97 570.29 278.32 574.15 270.13 574.8 268.87 575.14 268.18 577.4 263.29 580.44 257.21 580.84 256.51 581.4 255.86 583.22 254.23 585.34 252.95 586.1 252.64 587.91 252.18 588.76 251.87 591.29 251.8 594.04 251.99 609.98 253.78 611.77 253.69 613.36 253.35 615.32 252.32 616.75 251.46 625.19 247.18 627.66 246.67 628.59 246.84 631.04 245.81 632.12 245.27 632.88 245.03 634.69 244.11 635.79 243.79 636.27 243.53 640.73 241.42 643.02 240.26 643.47 239.86 645.52 237.86 648.64 234.4 650.02 233.2 657.43 227.97 658.73 226.91 659.69 226.39 662.91 224.97 672 223.84 673.68 223.71 674.47 223.57 676.53 222.52 677.57 221.57 679.84 217.88 680.76 216.5 682.45 214.93 682.35 216.47 682.87 217.16 686.53 220.97 690.16 224.31 691.42 225.83 692.31 226.99 694.26 229.26 695.01 230.7 695.3 231.46 695.54 232.54 695.27 234.3 695.02 235.09 694.75 236.12 692.8 243.4 691.92 247.01 691.59 248.54 691.49 249.19 692 252.74 692.01 253.98 692.02 255.24 692.03 256.17 691.98 257.28 692.06 259.8 692.24 260.73 692.82 261.92 694.36 263.15 696.93 264.52 695.76 264.25 695.14 264.39 694.29 265.11 693.7 266.03 692.69 267.11 691.93 267.66 690.33 268.32 683.96 270.08 680.76 271.07 673.74 273.01 669.81 274.17 667.09 274.91 664.94 275.25 655.93 275.8 652.17 275.93 636.35 276.71 631.12 276.93 624.77 277.6 622.43 277.71 620.1 277.93 617.98 278.27 615.42 278.6 613.52 278.94 608.73 279.71 603.28 281.16 601.49 281.5 593.81 283.61 588.68 284.06 584.56 284.84 581.11 286.06 577.99 286.95 574.87 288.18 572.09 288.96 569.26 290.71 568.73 291.19 568.42 291.57 567.93 292"/>
  <polyline class="cls-3" points="743.25 160.65 744.89 157.75 747.25 155.65 750.15 154.6 755.41 154.33 759.62 153.54 762.82 152.63 763.3 152.49 765.41 153.02 769.36 153.28 771.99 153.28 774.09 153.02 779.09 156.18 781.99 158.54 785.67 158.28 789.35 156.18 792.25 154.6 794.35 152.23 797.09 151.13 798.3 150.65 801.98 147.49 805.66 145.65 809.88 145.39 813.82 145.65 815.14 144.6 820.14 140.91 824.35 137.49 828.29 134.07"/>
</svg>
