<svg id="Black" xmlns="http://www.w3.org/2000/svg" viewBox="0 0 1019.21 924.84">
  <defs>
    <style>
      .cls-1 {
        fill: none;
        stroke: #00539f;
        stroke-miterlimit: 3.86;
        stroke-width: 3px;
        fill-rule: evenodd;
      }
    </style>
  </defs>
  <path class="cls-1" d="M595.6,430.23c8-4.64,12.7-7.83,18.19-15.19,2.48-3.33,4.21-5.16,5.81-9,2-4.83,3.65-7.36,5.62-12.19s4.32-6.93,6.75-11.43c2.3-4.32,3-7.13,5.44-11.44,2-3.66,4.36-5.06,7.13-8.25,4.17-4.78,5.57-8.16,9.75-12.94,7.59-8.72,12.6-12.94,19.5-22.12a228.78,228.78,0,0,0,13.12-18.75c4-6.38,5.53-10.6,11.63-15,4.64-6.19,11.71-6,15.18-12.94,1.17-2.39.33-4.36,1.5-6.75,1.74-3.52,5.07-4.69,9-4.69"/>
</svg>
