<svg id="UnionTurnpike" xmlns="http://www.w3.org/2000/svg" viewBox="0 0 916.45 181.28">
  <defs>
    <style>
      .cls-1 {
        fill: none;
        stroke: #00539f;
        stroke-miterlimit: 3.86;
        stroke-width: 3px;
        fill-rule: evenodd;
      }
    </style>
  </defs>
  <path class="cls-1" d="M-621,173.13c1.67.49,5.65,1.82,5.65,1.82l3.75-.38a9.56,9.56,0,0,1,5.25,2c3,2.06,10.5,7.31,10.5,7.31s3.65,2.35,4.59,9.57,1,8.06,1,8.06a18.13,18.13,0,0,0,5.35,8.34c4.31,3.94,14.43,12.28,14.43,12.28s4.5,4,12.57,1,23.81-9.18,23.81-9.18,3.28-1.32,6,.09,5.72,2.63,5.72,2.63a19.67,19.67,0,0,0,5.25.56c2.25-.19,11.62-.47,11.62-.47a70.75,70.75,0,0,0,11-2.53c5.44-1.78,11.06-3.38,11.06-3.38a85,85,0,0,0,10.5-4.59,64.52,64.52,0,0,1,8.44-3.84,37,37,0,0,1,8.35-1.88c3.56-.19,5.71-.56,10.87,1.69s11,4.22,11,4.22a12.88,12.88,0,0,0,4.87.47c2.07-.38,5.82-1,5.82-1a29,29,0,0,1,6.47.47c3.18.66,22.4,5.53,22.4,5.53s5.35.85,9,.1,9.94-2.44,9.94-2.44,17-5.06,30.66,6.66c3.06,2.62,6,5.06,8.65,7.26,0,0,4.66,6.33,14.78,3s13.5-2.91,13.5-2.91l6.47-.28a12.85,12.85,0,0,0,6-2c2.44-1.78,10.31-6.84,10.31-6.84A6.43,6.43,0,0,1-279,214c3.57,1.78,9.38,4.88,9.38,4.88a29.62,29.62,0,0,0,8.16,1.59c3.65,0,9.09.37,9.09.37s7.78.66,11.53,1.5,12,2.44,12,2.44A31.83,31.83,0,0,1-216,231.2c6.57,5.25,9.38,7.22,9.38,7.22a60.17,60.17,0,0,0,7.31,4.4c1,.53,2.16,1.17,3.29,1.85a13.63,13.63,0,0,0,10.21.4c5.35-2.06,19.78-7.22,19.78-7.22s7.22-2.72,11.82-1.87,7.21,1.4,7.21,1.4a14,14,0,0,0,4.69.19c2.16-.37,4.22-.75,4.22-.75s.84-.28,4.13.94a43.37,43.37,0,0,0,4.5,1.5,9.41,9.41,0,0,0,4.4.47c2.25-.38,4-.66,4-.66l4.69-.19s3.56-.56,5-2.53,1.78-2.43,1.78-2.43,1.22-2.07,5.06-1A43.77,43.77,0,0,0-99.84,234s4.22.84,6.47.47,9.66-1.5,9.66-1.5,5.53-.66,8.53,3.56,1.22,3.47,4.31,4.59l4.41,1.6s.84.19,3.09,2.53,11.44,11.16,11.44,11.16l7.87,9.37s3.47,5.06,14.91,5.63,12.19.84,12.19.84l27,5.25s7.21,1.5,13.59-1.31L30.85,273s3.75-2.16,10.31-.84,25.31,5.34,25.31,5.34,6.38.84,10.78-3.09,4.13-3.85,4.13-3.85,1.41-2.15,6.56-1.78,19.5,2.06,19.5,2.06a27,27,0,0,0,7.41-.93c3.28-1,26.53-6.94,26.53-6.94s2.72-1.22,8.25,2.34c4.5,2.9,21.84,14.16,21.84,14.16s4.78,4.12,5.63,6.37,2.72,3.85,7,7.13L201,305.82A56,56,0,0,1,211.6,319a143,143,0,0,1,6.94,13.22L242,335.45l8.35.75,17.83,5.08-1.8-.77c1.85.91,3.11.91,4.78,2.06l23.34,9" transform="translate(621.44 -171.69)"/>
</svg>
