<svg id="Red" xmlns="http://www.w3.org/2000/svg" viewBox="0 0 1019.21 924.84">
  <defs>
    <style>
      .cls-1 {
        fill: none;
        stroke: #00539f;
        stroke-miterlimit: 3.86;
        stroke-width: 3px;
        fill-rule: evenodd;
      }
    </style>
  </defs>
  <path class="cls-1" d="M-124.4,584a7.87,7.87,0,0,0,1.08.19c2.53,0,3.93-.94,6.46-.94h12.66c4.69,0,7.17-1.31,11.86-1.88,13.27-1.64,20.67-1.17,33.94-2.62,6.42-.7,9.94-2.06,16.36-2.06h23.72c4.21,0,6.56-1.13,10.73-1.69,4.92-.7,7.88-1,12.56-2.63s7.36-3.56,12.38-3.56a55.52,55.52,0,0,1,6.75.75l9.37-.37c4.27-1.74,7.22-1.32,11.86-1.32H56.68c8.39,0,13.26-.32,21.42-2.43,7.78-2,12.28-3.57,20.29-3.57,4.27,0,6.71-.18,11-.18,6.43,0,9.8-2.82,16.22-2.82h14.16c8.58,0,13.17-2.39,21.61-4.12,6.28-1.31,9.33-2.2,15.56-3.75a43.35,43.35,0,0,1,7.78-.56c3.85,0,6.7-.85,9.85,1.31.79.51.75,1.5,1.5,2.06,1.35,1.08,2.76.38,4.5.38,1.12,0,1.5,1.31,2.62,1.31,3.38,0,4.92-2,7.88-3.56,5.57-3,9.37-4.5,15.75-4.5,3.89,0,6,1.12,9.75,2.06,4.64,1.12,7.5.56,12.28.56,7.87,0,12.28-.47,20.15-.75,4.32-.42,6.8-1.12,11.16-1.12,3.09,0,4.87.75,8,.75,8.58,0,13.36-1.41,21.75-3.38,4.31-1,6.37-1.17,10.69-2.25,12.6-1,19.59-1.87,32.06-3.94,5.9-1,9.37-1.45,15-3.56,6-2.25,8.9-6.19,15.37-6.19,2.53,0,3.94.24,6.47.38l52.13-6.75c5.11.33,8,.94,13.12.94,6.42,0,10.22-.94,16.22-3.19,2.72-1,4.17-2,6.94-2.81,3.37-1,4.92-2.35,8.44-2.63,1.26-.19,1.78-1.12,3-1.12h8.16c4.64,0,6.94-2.16,11.3-3.75,5.9-2.21,9.6-1.88,15.75-3.38"/>
  <polyline class="cls-1" points="524.53 507.29 532.1 505.13 545.1 496.71 552.58 487.47"/>
</svg>
